<svg xmlns="http://www.w3.org/2000/svg" xmlns:xlink="http://www.w3.org/1999/xlink" viewBox="0 0 85.76 137.57"><defs><style>.cls-1,.cls-4,.cls-6{fill:none;}.cls-2{clip-path:url(#clip-path);}.cls-3{fill:#b2b8a3;}.cls-3,.cls-5,.cls-7,.cls-8{fill-rule:evenodd;}.cls-4{stroke:#9c9696;}.cls-4,.cls-6{stroke-miterlimit:10;stroke-width:0.23px;}.cls-5{fill:#f5ccbc;}.cls-6{stroke:#705d5d;}.cls-7{fill:#fce3d8;}.cls-8{fill:#a0a88c;}</style><clipPath id="clip-path" transform="translate(-0.6 -1.04)"><rect class="cls-1" width="87.07" height="139.62"/></clipPath></defs><g id="Ebene_2" data-name="Ebene 2"><g id="Ebene_1-2" data-name="Ebene 1"><g class="cls-2"><path class="cls-3" d="M34.09,3.06c-7.63,2.85-15,8.82-17.89,18.82s-1.22,24,2,33.38,8.16,14,6,18.2S12.81,81.23,9.79,84.18,10,89.39,12,93.46s2.83,10,5.43,15.38S24.39,119,29.29,125.33s10.33,14,17.8,11.9,17-14,24.64-23.67S85.15,96.37,86.1,91.72s-2.92-6.4-7.17-9.51S70.12,74.63,68.3,71.26s-1-5.74,1.59-13.18,6.64-20,4.86-30.4S65.25,9,57.45,4.7A27,27,0,0,0,34.09,3.06Z" transform="translate(-0.6 -1.04)"/><path class="cls-4" d="M34.09,3.06c-7.63,2.85-15,8.82-17.89,18.82s-1.22,24,2,33.38,8.16,14,6,18.2S12.81,81.23,9.79,84.18,10,89.39,12,93.46s2.83,10,5.43,15.38S24.39,119,29.29,125.33s10.33,14,17.8,11.9,17-14,24.64-23.67S85.15,96.37,86.1,91.72s-2.92-6.4-7.17-9.51S70.12,74.63,68.3,71.26s-1-5.74,1.59-13.18,6.64-20,4.86-30.4S65.25,9,57.45,4.7A27,27,0,0,0,34.09,3.06Z" transform="translate(-0.6 -1.04)"/><path class="cls-5" d="M41.63,18.08c-3.72,1.64-7.9,6.16-11.09,11.25s-5.46,10.78-5.76,15.41a14.13,14.13,0,0,0,4.18,11A25.51,25.51,0,0,0,39.45,62a18,18,0,0,0,11.88.17,27,27,0,0,0,10.43-7.67,11.77,11.77,0,0,0,2.79-10,49.3,49.3,0,0,0-4.9-14.82,27.13,27.13,0,0,0-8.06-9.77C48.6,17.72,45.34,16.47,41.63,18.08Z" transform="translate(-0.6 -1.04)"/><path class="cls-6" d="M41.63,18.08c-3.72,1.64-7.9,6.16-11.09,11.25s-5.46,10.78-5.76,15.41a14.13,14.13,0,0,0,4.18,11A25.51,25.51,0,0,0,39.45,62a18,18,0,0,0,11.88.17,27,27,0,0,0,10.43-7.67,11.77,11.77,0,0,0,2.79-10,49.3,49.3,0,0,0-4.9-14.82,27.13,27.13,0,0,0-8.06-9.77C48.6,17.72,45.34,16.47,41.63,18.08Z" transform="translate(-0.6 -1.04)"/><path class="cls-7" d="M41.82,19.55c-3.45,1.54-7.33,5.74-10.32,10.5s-5.1,10.06-5.37,14.39A13.15,13.15,0,0,0,30,54.74a24.37,24.37,0,0,0,9.77,5.83,16.87,16.87,0,0,0,11.09.13,24.42,24.42,0,0,0,9.73-7.14c2.31-2.79,3.13-5.32,2.63-9.38a46.06,46.06,0,0,0-4.57-13.84,25.4,25.4,0,0,0-7.53-9.08C48.34,19.22,45.31,18.05,41.82,19.55Z" transform="translate(-0.6 -1.04)"/><path class="cls-3" d="M11.79,83c-.79-.3-2.23,1.18-4.5,3.87S1.83,93.4.91,97.27s.39,7.83,1.87,12.06a113.23,113.23,0,0,0,6,14.76c3,5.93,7.34,13.24,8.78,14.36s-.1-4-.72-9.18-.4-10.59-.86-16.59-1.61-12.69-2.26-17-.76-6.26-.89-8.3S12.58,83.3,11.79,83Z" transform="translate(-0.6 -1.04)"/><path class="cls-8" d="M78,95.46c-.56,1.21-.82,3.38-1.94,5.12a12.18,12.18,0,0,1-5.3,4.16,29.16,29.16,0,0,1-7,2.13c-2.4.49-4.84.82-5.33,1.22s1,.85,3.56.88a30.29,30.29,0,0,0,9.27-1.37,15,15,0,0,0,6.84-4.53,13.11,13.11,0,0,0,3-5.64c.29-1.61-.17-2.66-.86-3.05S78.6,94.25,78,95.46ZM8.76,89.85a29.72,29.72,0,0,0,1.94,8.56,63.25,63.25,0,0,0,4.41,9.48c.89,1.34.53-.4-.16-2.79s-1.71-5.41-2.53-8.1-1.48-5-1.94-6.79-.73-2.95-1.06-3.08S8.7,87.92,8.76,89.85ZM6.69,93.17a22,22,0,0,0-1.35-4c-.59.79-1.21,1.61-1.77,2.46C4.1,94.51,4.85,98.18,5.8,102c1.55,6.2,3.49,12.6,5,16.92s2.66,6.53,2.83,6.36S13,122.51,12,118.61s-2.37-9.21-3.26-13.84S7.42,96.15,6.69,93.17ZM55.51,132c1.74-1.57,3.52-3.34,5.29-5.27-.32.13-.69.26-1,.39a55.1,55.1,0,0,1-12.1,2.43c-3.46.33-5.56.33-4.08.75a81.26,81.26,0,0,0,9.6,1.58C54.13,131.92,54.88,132,55.51,132ZM19.62,107.07a30.18,30.18,0,0,1-4-2.69,43.59,43.59,0,0,0,1.78,4.46c.59,1.18,1.25,2.36,2,3.51a39.14,39.14,0,0,0,8.26,4.46c6.25,2.46,14,3.54,21.48,3.64A118.21,118.21,0,0,0,67.35,119c.29-.39.62-.76.92-1.15-3.88-.07-11.55.07-18.32-.62a72.46,72.46,0,0,1-18.49-4.33A75.52,75.52,0,0,1,19.62,107.07ZM20.71,87.3c-1.29-1.12-2-1.64-1.75-.66a10.32,10.32,0,0,0,4.81,5.44c3.28,1.87,8.52,3.15,12.33,3.68s6.15.36,6.15.19-2.33-.36-5.52-1.08a50.09,50.09,0,0,1-10.07-3.44A26.53,26.53,0,0,1,20.71,87.3ZM68.8,85.75a21.25,21.25,0,0,1-4.15,6.4,25.85,25.85,0,0,1-10.53,6.33,64.76,64.76,0,0,1-16.21,2.82c-5.27.26-9.61-.1-11.06.06s0,.92,3.88,1.8A59.88,59.88,0,0,0,47,104.8c6-.36,11.58-2.16,15.4-5.24S68.17,92.15,69.25,89s1.28-5.15,1.09-5.61S69.62,84,68.8,85.75ZM62,74.74a47.45,47.45,0,0,1-6.15,4.32,57.87,57.87,0,0,1-10.53,4.69,50.6,50.6,0,0,1-11,2.27c-3.09.26-5.27.1-6,.26s0,.72,2.07,1.38a23.58,23.58,0,0,0,9.8.78A36.35,36.35,0,0,0,53.4,83.85a33.45,33.45,0,0,0,8.25-7.15,21,21,0,0,0,3.16-4.06C64.82,72.38,63.57,73.46,62,74.74ZM30.8,63.16c-1.41-1.28-2.13-2-2.73-2.52s-1-.92-1.51-1.55-1-1.54-1-1a16.92,16.92,0,0,0,1.58,4.69A17.93,17.93,0,0,0,31.53,69a16.12,16.12,0,0,0,8,3.34,55.52,55.52,0,0,0,10.2.46c2.66-.1,3.81-.26,2.89-.72a55,55,0,0,0-7-1.9A40.42,40.42,0,0,1,37,67.49,27.65,27.65,0,0,1,30.8,63.16Zm-8.58-27.7A31.91,31.91,0,0,0,22.51,44a26.94,26.94,0,0,0,4,10.69c1.9,2.76,4.24,4.3,4.7,4.3s-1-1.54-2.24-3.51a41.3,41.3,0,0,1-3.32-7.05,55.43,55.43,0,0,1-2.5-8.17C22.58,37.55,22.42,34.83,22.22,35.46Zm47.14-2A32.7,32.7,0,0,1,69.09,42a24.88,24.88,0,0,1-4.27,10.82c-2.21,2.86-5.17,4.63-5.6,4.63s1.58-1.77,3.13-3.87a28.66,28.66,0,0,0,3.58-7.15,49.79,49.79,0,0,0,2.5-8.17C69,35.52,69.16,32.8,69.36,33.46Z" transform="translate(-0.6 -1.04)"/></g></g></g></svg>