<svg xmlns="http://www.w3.org/2000/svg" xmlns:xlink="http://www.w3.org/1999/xlink" viewBox="0 0 108.2 110"><defs><style>.cls-1{fill:none;}.cls-2{clip-path:url(#clip-path);}</style><clipPath id="clip-path" transform="translate(-1.07 -0.34)"><rect class="cls-1" width="110.34" height="110.34"/></clipPath></defs><g id="Ebene_2" data-name="Ebene 2"><g id="Ebene_1-2" data-name="Ebene 1"><g class="cls-2"><path d="M41.46,57.06H32.87l8.59-5.15Zm3.44,1.72V50.19a1.72,1.72,0,0,0-1.72-1.72h-12a1.73,1.73,0,0,0-1.72,1.72v8.59a1.73,1.73,0,0,0,1.72,1.72h12A1.72,1.72,0,0,0,44.9,58.78Z" transform="translate(-1.07 -0.34)"/><path d="M49.2,36.44H63a1.72,1.72,0,0,0,1.72-1.64,8.44,8.44,0,0,0-1.29-1.71A.63.63,0,0,0,63,33H49.2a1.72,1.72,0,0,0,0,3.44Z" transform="translate(-1.07 -0.34)"/><path d="M57.36,4.38l10,9a28.59,28.59,0,0,1,11,5.32L59.68,1.8a5.84,5.84,0,0,0-7.47,0l-48,43.32a1.65,1.65,0,0,0-.09,2.4,1.66,1.66,0,0,0,2.41.09l4-3.61V87.48L14,85.08V41.59a1.14,1.14,0,0,0-.08-.51L54.44,4.38A2.34,2.34,0,0,1,57.36,4.38Z" transform="translate(-1.07 -0.34)"/><path d="M23.42,65.66V78.55l3.44-2.41V67.37H39.4l4.9-3.43H25.14A1.72,1.72,0,0,0,23.42,65.66Z" transform="translate(-1.07 -0.34)"/><path d="M98.18,100H50.92V93.16H98.18Zm0-10.31H50.92v-3l-3.44,2.41V100H31.67l-5,3.44H99.9a1.73,1.73,0,0,0,1.72-1.72V81.3l-3.44,2.4Z" transform="translate(-1.07 -0.34)"/><path d="M99,15.81a1.73,1.73,0,0,0-1.72,1.72v18l-5.15-4.64V11.52a1.72,1.72,0,1,0-3.44,0V27.84L83.57,23.2V2.06a1.72,1.72,0,1,0-3.43,0V20a21.45,21.45,0,0,1,2,2l.26.26c.17.26.43.43.6.69l.17.17a5.16,5.16,0,0,1,.43.6,4.12,4.12,0,0,1,.69,1l6.62,9.62,7.47,6.71a1.14,1.14,0,0,0-.08.51v3.53l3.44,5V44l4,3.61a2,2,0,0,0,1.12.43,1.65,1.65,0,0,0,1.29-.6A1.67,1.67,0,0,0,108,45l-7.22-6.44V17.53A1.73,1.73,0,0,0,99,15.81Z" transform="translate(-1.07 -0.34)"/><path d="M13.11,100.89a1.72,1.72,0,1,1-1.72-1.72A1.73,1.73,0,0,1,13.11,100.89Zm-9.89-4a5,5,0,0,0-1.29,6.88l3,4.46a4.83,4.83,0,0,0,4,2.15,5.47,5.47,0,0,0,2.84-.86l8.07-5.58L11.13,91.26Z" transform="translate(-1.07 -0.34)"/><path d="M85.38,49.07a1.76,1.76,0,0,1-.95.26A1.81,1.81,0,0,1,83,48.55l-5.15-7.73a1.76,1.76,0,0,1,.43-2.41,1.7,1.7,0,0,1,2.4.52l5.16,7.73A1.71,1.71,0,0,1,85.38,49.07Zm19,11.17a1.69,1.69,0,0,0-2-.69L96,61.79l-1-1.55,4-6.19a1.88,1.88,0,0,0,0-1.89L81.34,26.64c-.6-.94-7-10.83-22.09-10.83a39.6,39.6,0,0,0-8.68,1,1.65,1.65,0,0,0-1.37,1.55,1.68,1.68,0,0,0,1.12,1.72c.17.09,15.72,5.67,19.33,17.27l-6.1,8.85a1.68,1.68,0,0,0,0,2l3,4.38L14,89.29l8.86,12.63,52.5-36.18v.09l1.29,1.89a1.76,1.76,0,0,0,1.89.69l5.67-1.55,1.55,2.23-3.78,5.42a1.67,1.67,0,0,0,0,2l3.78,5.59a4.85,4.85,0,0,0,4,2.15,5.56,5.56,0,0,0,2.84-.86l14.52-10.14a5,5,0,0,0,1.29-6.88Z" transform="translate(-1.07 -0.34)"/></g></g></g></svg>