<svg xmlns="http://www.w3.org/2000/svg" xmlns:xlink="http://www.w3.org/1999/xlink" viewBox="0 0 104.8 132.86"><defs><style>.cls-1{fill:none;}.cls-2{clip-path:url(#clip-path);}</style><clipPath id="clip-path" transform="translate(-0.26)"><rect class="cls-1" width="105.84" height="132.86"/></clipPath></defs><g id="Ebene_2" data-name="Ebene 2"><g id="Ebene_1-2" data-name="Ebene 1"><g class="cls-2"><path d="M45.11,54.3V36.93a4.67,4.67,0,0,1,4.67-4.66h5.75a4.67,4.67,0,0,1,4.67,4.66V54.3h5.42a3.8,3.8,0,0,0,3.8-3.8V29.34L52.65,17.16,35.88,29.34V50.5a3.81,3.81,0,0,0,3.8,3.8h5.43" transform="translate(-0.26)"/><path d="M53.8,13.15,75,28.52a2.08,2.08,0,0,0,2.89-.46,2.08,2.08,0,0,0-.47-2.89l-23.47-17,0,0a2.11,2.11,0,0,0-2.47,0L27.9,25.17a2.09,2.09,0,0,0-.83,1.35,2,2,0,0,0,.37,1.54,2.07,2.07,0,0,0,2.89.46L51.5,13.15a2,2,0,0,1,2.3,0" transform="translate(-0.26)"/><path d="M55.53,36.19H49.78a.76.76,0,0,0-.76.74V54.3h7.26V36.93a.76.76,0,0,0-.75-.74" transform="translate(-0.26)"/><path d="M30,99.83A3,3,0,0,0,28.51,98a3.15,3.15,0,0,0-4.21,1.27l-3.22,6a3.11,3.11,0,0,0,5.48,2.94l3.23-6A3.05,3.05,0,0,0,30,99.83" transform="translate(-0.26)"/><path d="M36.8,104a3.16,3.16,0,0,0-4.21,1.27l-4.37,8.16a3.11,3.11,0,0,0,5.49,2.93l4.36-8.15A3.15,3.15,0,0,0,36.8,104" transform="translate(-0.26)"/><path d="M83.63,95.32l-17.53-10c-2.94-1.67-6.63-.17-10.92,1.56-6.56,2.65-14.72,6-21.65-3.58a2,2,0,0,1-.33-1.56,2,2,0,0,1,.94-1.29,60.4,60.4,0,0,0,13-9.67c.82-.83,1.64-1.59,2.47-2.29-3.71-1.58-6.9-.83-10.23,0s-6.86,1.62-10.45-.36l-9.81-4.53L8.6,85.88l.39.18c3,1.34,8.54,3.84,9.56,4.24,2.55,1,3.26,3.35,3.66,5.34a7,7,0,0,1,11.55,3A6.67,6.67,0,0,1,34,99.85a7,7,0,0,1,8,4.85.83.83,0,0,1,0,.15l.15,0a7,7,0,0,1,5.35.53,6.93,6.93,0,0,1,3.4,4.15l0,.15.14,0a7.05,7.05,0,0,1,7.41,2.19L66.25,116a3.12,3.12,0,0,0,4.23-1.22,3.16,3.16,0,0,0-1.25-4.24l-10.82-6.09A2,2,0,1,1,60.33,101L74,108.69a3.11,3.11,0,0,0,4.23-1.23A3.15,3.15,0,0,0,77,103.23L66.18,97.11a2,2,0,0,1,1.93-3.41l12.57,7.1a3,3,0,0,0,2.31.26,3.11,3.11,0,0,0,1.9-1.5,3.17,3.17,0,0,0-1.26-4.24" transform="translate(-0.26)"/><path d="M80.76,69.87c-3.71,1.93-7.2.5-10.58-.88-4.54-1.86-9.23-3.77-16,.9a31.52,31.52,0,0,0-4.28,3.65,62.17,62.17,0,0,1-11.82,9.14c4.74,5,9.82,2.93,15.63.58,3.15-1.27,6.37-2.58,9.51-2.58A9.59,9.59,0,0,1,68,81.93l17.53,10a7,7,0,0,1,1.92,1.6l9.32-4-9.07-23.4-7,3.73" transform="translate(-0.26)"/><path d="M62.91,118.63h0l-2.7-1.49a7.09,7.09,0,0,1-.77,2.48l-1.74,3.24,2.23,1.23a3.11,3.11,0,0,0,3-5.46" transform="translate(-0.26)"/><path d="M54.69,113.56a3.16,3.16,0,0,0-4.22,1.27s-3.09,5.78-3.09,5.78a3.13,3.13,0,0,0,1.28,4.21,3.14,3.14,0,0,0,4.21-1.28L56,117.77a3.16,3.16,0,0,0-1.27-4.21" transform="translate(-0.26)"/><path d="M104.66,88.54,94.1,61.3A5.7,5.7,0,0,0,90.74,58a5.73,5.73,0,0,0-4.68.33l-8.87,4.74a.48.48,0,0,1-.26.07,15.82,15.82,0,0,1-3.85-1.26c-.77-.31-1.62-.67-2.56-1A11.49,11.49,0,0,0,77.1,50.5v-14a9.8,9.8,0,0,0,7-4A9.74,9.74,0,0,0,81.92,19L58.51,2a9.71,9.71,0,0,0-11.59-.1L23.39,19a9.74,9.74,0,0,0,4.19,17.51c.21,0,.41.06.62.08v14A11.51,11.51,0,0,0,36,61.36a11.24,11.24,0,0,1-2.14.29,2.27,2.27,0,0,1-1.25-.3l-.39-.19L20.54,55.79a5.68,5.68,0,0,0-2.4-.53A5.74,5.74,0,0,0,13,58.55L.79,84.43A5.74,5.74,0,0,0,.7,89.06a5.66,5.66,0,0,0,3,3l1.06.48L14.64,97c0,.23.1.51.16.85.12.62.25,1.33.45,2.08l-.94,1.76a10.8,10.8,0,0,0,4.42,14.6,11.05,11.05,0,0,0,1.66.71,9.3,9.3,0,0,0,.26,1,10.7,10.7,0,0,0,5.23,6.39A10.86,10.86,0,0,0,31,125.68a11.44,11.44,0,0,0,1.93-.17,11.08,11.08,0,0,0,2.77,2.12,10.87,10.87,0,0,0,5.08,1.27,8.65,8.65,0,0,0,1-.05,10.72,10.72,0,0,0,8.37,4,10.93,10.93,0,0,0,3.15-.47,10.67,10.67,0,0,0,3.09-1.5,10.79,10.79,0,0,0,15.7-7.72,10.75,10.75,0,0,0,5.15-4.69,10.31,10.31,0,0,0,.86-2A10.82,10.82,0,0,0,85,111.16a10.55,10.55,0,0,0,1.11-3,10.74,10.74,0,0,0,5.53-4.85,10.86,10.86,0,0,0,1.22-3.68l8.73-3.72a5.68,5.68,0,0,0,3.09-7.32M32,50.5V32.11a5.85,5.85,0,0,1-2.83.73,6.22,6.22,0,0,1-1-.08A6,6,0,0,1,25.6,22L49.13,4.91A6,6,0,0,1,56.25,5L79.7,22a5.92,5.92,0,0,1,2.4,3.9,6,6,0,0,1-8.76,6.21V50.5a7.72,7.72,0,0,1-7.72,7.72H39.68A7.73,7.73,0,0,1,32,50.5Zm68.13,41.9-11,4.69a6.92,6.92,0,0,1-.78,4.36,7,7,0,0,1-4.26,3.38,7.14,7.14,0,0,1-1.58.26,7,7,0,0,1-.8,4.26A7,7,0,0,1,75.51,113c-.25,0-.5,0-.75,0a7,7,0,0,1-6.41,7.32A7,7,0,0,1,58,127.52l-2.26-1.24a7,7,0,0,1-12.2-1.73,7.31,7.31,0,0,1-.78.29,7.21,7.21,0,0,1-2.05.3,7,7,0,0,1-6.37-4.09A7,7,0,0,1,24,113.77h-.22a7,7,0,0,1-6.18-10.34l1.7-3.18a14.66,14.66,0,0,1-.83-3.13c-.35-1.94-.6-2.88-1.37-3.18-1-.4-11.73-5.22-11.89-5.28A2,2,0,0,1,4.2,86L16.37,60.15A2,2,0,0,1,19,59.2l11.65,5.37.14.07c2.28,1.29,4.67.72,7.7,0,4-1,8.91-2.11,14.68,1.26,7.94-4.87,14-2.39,18.53-.55,3.32,1.36,5.29,2.08,7.27,1l8.91-4.77a2,2,0,0,1,2.75,1l10.56,27.23A2,2,0,0,1,100.09,92.4Z" transform="translate(-0.26)"/><path d="M45.74,108.78a3.16,3.16,0,0,0-4.21,1.28L38,116.65a3.11,3.11,0,0,0,5.49,2.93L47,113a3.16,3.16,0,0,0-1.28-4.21" transform="translate(-0.26)"/></g></g></g></svg>