<svg xmlns="http://www.w3.org/2000/svg" xmlns:xlink="http://www.w3.org/1999/xlink" viewBox="0 0 563.39 617.74"><defs><style>.cls-1{fill:url(#Unbenannter_Verlauf_2);}.cls-2{fill:url(#Unbenannter_Verlauf_14);}.cls-3{fill:url(#Unbenannter_Verlauf_17);}.cls-4{fill:#fff;}.cls-5{fill:url(#Unbenannter_Verlauf_17-2);}.cls-13,.cls-14,.cls-15,.cls-6,.cls-7,.cls-8{stroke:#aaa496;stroke-width:0.1px;}.cls-10,.cls-13,.cls-14,.cls-15,.cls-6,.cls-7,.cls-8{stroke-miterlimit:10;}.cls-6{fill:url(#Unbenannter_Verlauf_12);}.cls-7{fill:url(#Unbenannter_Verlauf_12-2);}.cls-8{fill:url(#Unbenannter_Verlauf_12-3);}.cls-9{fill:url(#Unbenannter_Verlauf_17-3);}.cls-10,.cls-11{fill:none;}.cls-10{stroke:#db000f;}.cls-12{fill:url(#Unbenannter_Verlauf_17-4);}.cls-13{fill:url(#Unbenannter_Verlauf_12-4);}.cls-14{fill:url(#Unbenannter_Verlauf_12-5);}.cls-15{fill:url(#Unbenannter_Verlauf_12-6);}.cls-16{fill:url(#Unbenannter_Verlauf_17-5);}.cls-17{opacity:0.23;}.cls-18{fill:url(#Unbenannter_Verlauf_14-2);}.cls-19{fill:url(#Unbenannter_Verlauf_17-6);}.cls-20{fill:url(#Unbenannter_Verlauf_17-7);}.cls-21{fill:url(#Unbenannter_Verlauf_17-8);}.cls-22{fill:url(#Unbenannter_Verlauf_17-9);}.cls-23{fill:url(#Unbenannter_Verlauf_17-10);}.cls-24{fill:url(#Unbenannter_Verlauf_17-11);}.cls-25{fill:url(#Unbenannter_Verlauf_17-12);}.cls-26{fill:url(#Unbenannter_Verlauf_17-13);}.cls-27{fill:url(#Unbenannter_Verlauf_17-14);}.cls-28{fill:url(#Unbenannter_Verlauf_17-15);}.cls-29{fill:url(#Unbenannter_Verlauf_17-16);}.cls-30{fill:url(#Unbenannter_Verlauf_17-17);}.cls-31{fill:url(#Unbenannter_Verlauf_17-18);}.cls-32{fill:url(#Unbenannter_Verlauf_17-19);}.cls-33{fill:url(#Unbenannter_Verlauf_17-20);}.cls-34{fill:url(#Unbenannter_Verlauf_17-21);}</style><radialGradient id="Unbenannter_Verlauf_2" cx="547.2" cy="-1462.35" r="152.82" gradientTransform="matrix(1, 0.02, 0, -0.12, -258.72, 292.85)" gradientUnits="userSpaceOnUse"><stop offset="0" stop-color="#010604" stop-opacity="0.4"/><stop offset="1" stop-color="#1e8132" stop-opacity="0"/></radialGradient><linearGradient id="Unbenannter_Verlauf_14" x1="543.08" y1="489.19" x2="533.73" y2="109.21" gradientTransform="matrix(1, 0, 0, -1, -258.29, 497.15)" gradientUnits="userSpaceOnUse"><stop offset="0" stop-color="#1e8132"/><stop offset="0.66" stop-color="#3aa733" stop-opacity="0.8"/><stop offset="0.67" stop-color="#3aa733" stop-opacity="0.66"/><stop offset="0.69" stop-color="#3aa733" stop-opacity="0.48"/><stop offset="0.72" stop-color="#3aa733" stop-opacity="0.33"/><stop offset="0.74" stop-color="#3aa733" stop-opacity="0.21"/><stop offset="0.77" stop-color="#3aa733" stop-opacity="0.11"/><stop offset="0.81" stop-color="#3aa733" stop-opacity="0.05"/><stop offset="0.86" stop-color="#3aa733" stop-opacity="0.01"/><stop offset="1" stop-color="#3aa733" stop-opacity="0"/></linearGradient><linearGradient id="Unbenannter_Verlauf_17" x1="532.92" y1="358.02" x2="543.05" y2="148.35" gradientTransform="matrix(1, 0, 0, -1, -258.29, 497.15)" gradientUnits="userSpaceOnUse"><stop offset="0" stop-color="#1e8132"/><stop offset="1" stop-color="#2c5e38"/></linearGradient><linearGradient id="Unbenannter_Verlauf_17-2" x1="392.41" y1="36.43" x2="403.5" y2="76.21" xlink:href="#Unbenannter_Verlauf_17"/><linearGradient id="Unbenannter_Verlauf_12" x1="383.12" y1="66.53" x2="337.62" y2="110.11" gradientTransform="matrix(1, 0, 0, -1, -258.29, 497.15)" gradientUnits="userSpaceOnUse"><stop offset="0" stop-color="#b6ab8d"/><stop offset="1" stop-color="#e0d2ad"/></linearGradient><linearGradient id="Unbenannter_Verlauf_12-2" x1="406.01" y1="29.92" x2="425.9" y2="99.99" xlink:href="#Unbenannter_Verlauf_12"/><linearGradient id="Unbenannter_Verlauf_12-3" x1="399.74" y1="32.98" x2="465.07" y2="120.4" xlink:href="#Unbenannter_Verlauf_12"/><linearGradient id="Unbenannter_Verlauf_17-3" x1="530.57" y1="39.42" x2="532.8" y2="56.34" xlink:href="#Unbenannter_Verlauf_17"/><linearGradient id="Unbenannter_Verlauf_17-4" x1="-346.87" y1="36.43" x2="-335.78" y2="76.21" gradientTransform="translate(82.38 497.15) rotate(180)" xlink:href="#Unbenannter_Verlauf_17"/><linearGradient id="Unbenannter_Verlauf_12-4" x1="-356.15" y1="66.53" x2="-401.65" y2="110.11" gradientTransform="translate(82.38 497.15) rotate(180)" xlink:href="#Unbenannter_Verlauf_12"/><linearGradient id="Unbenannter_Verlauf_12-5" x1="-333.26" y1="29.92" x2="-313.37" y2="99.99" gradientTransform="translate(82.38 497.15) rotate(180)" xlink:href="#Unbenannter_Verlauf_12"/><linearGradient id="Unbenannter_Verlauf_12-6" x1="-339.55" y1="32.96" x2="-274.29" y2="120.28" gradientTransform="translate(82.38 497.15) rotate(180)" xlink:href="#Unbenannter_Verlauf_12"/><linearGradient id="Unbenannter_Verlauf_17-5" x1="-208.7" y1="39.42" x2="-206.47" y2="56.34" gradientTransform="translate(82.38 497.15) rotate(180)" xlink:href="#Unbenannter_Verlauf_17"/><linearGradient id="Unbenannter_Verlauf_14-2" x1="542.39" y1="460.12" x2="534.21" y2="128.11" xlink:href="#Unbenannter_Verlauf_14"/><linearGradient id="Unbenannter_Verlauf_17-6" x1="38.02" y1="611.04" x2="445.14" y2="462" gradientTransform="matrix(1, 0, 0, 1, 0, 0)" xlink:href="#Unbenannter_Verlauf_17"/><linearGradient id="Unbenannter_Verlauf_17-7" x1="42.87" y1="624.29" x2="449.99" y2="475.25" gradientTransform="matrix(1, 0, 0, 1, 0, 0)" xlink:href="#Unbenannter_Verlauf_17"/><linearGradient id="Unbenannter_Verlauf_17-8" x1="49.12" y1="641.36" x2="456.24" y2="492.32" gradientTransform="matrix(1, 0, 0, 1, 0, 0)" xlink:href="#Unbenannter_Verlauf_17"/><linearGradient id="Unbenannter_Verlauf_17-9" x1="38.55" y1="612.51" x2="445.68" y2="463.47" gradientTransform="matrix(1, 0, 0, 1, 0, 0)" xlink:href="#Unbenannter_Verlauf_17"/><linearGradient id="Unbenannter_Verlauf_17-10" x1="41.4" y1="620.28" x2="448.52" y2="471.24" gradientTransform="matrix(1, 0, 0, 1, 0, 0)" xlink:href="#Unbenannter_Verlauf_17"/><linearGradient id="Unbenannter_Verlauf_17-11" x1="45.19" y1="630.63" x2="452.31" y2="481.6" gradientTransform="matrix(1, 0, 0, 1, 0, 0)" xlink:href="#Unbenannter_Verlauf_17"/><linearGradient id="Unbenannter_Verlauf_17-12" x1="49.9" y1="643.49" x2="457.02" y2="494.45" gradientTransform="matrix(1, 0, 0, 1, 0, 0)" xlink:href="#Unbenannter_Verlauf_17"/><linearGradient id="Unbenannter_Verlauf_17-13" x1="53.99" y1="654.67" x2="461.11" y2="505.63" gradientTransform="matrix(1, 0, 0, 1, 0, 0)" xlink:href="#Unbenannter_Verlauf_17"/><linearGradient id="Unbenannter_Verlauf_17-14" x1="59.36" y1="669.35" x2="466.48" y2="520.31" gradientTransform="matrix(1, 0, 0, 1, 0, 0)" xlink:href="#Unbenannter_Verlauf_17"/><linearGradient id="Unbenannter_Verlauf_17-15" x1="62.2" y1="677.11" x2="469.33" y2="528.08" gradientTransform="matrix(1, 0, 0, 1, 0, 0)" xlink:href="#Unbenannter_Verlauf_17"/><linearGradient id="Unbenannter_Verlauf_17-16" x1="65.11" y1="685.05" x2="472.23" y2="536.01" gradientTransform="matrix(1, 0, 0, 1, 0, 0)" xlink:href="#Unbenannter_Verlauf_17"/><linearGradient id="Unbenannter_Verlauf_17-17" x1="71.17" y1="701.62" x2="478.3" y2="552.58" gradientTransform="matrix(1, 0, 0, 1, 0, 0)" xlink:href="#Unbenannter_Verlauf_17"/><linearGradient id="Unbenannter_Verlauf_17-18" x1="74.77" y1="711.44" x2="481.89" y2="562.4" gradientTransform="matrix(1, 0, 0, 1, 0, 0)" xlink:href="#Unbenannter_Verlauf_17"/><linearGradient id="Unbenannter_Verlauf_17-19" x1="78.43" y1="721.43" x2="485.55" y2="572.39" gradientTransform="matrix(1, 0, 0, 1, 0, 0)" xlink:href="#Unbenannter_Verlauf_17"/><linearGradient id="Unbenannter_Verlauf_17-20" x1="83.11" y1="734.23" x2="490.24" y2="585.2" gradientTransform="matrix(1, 0, 0, 1, 0, 0)" xlink:href="#Unbenannter_Verlauf_17"/><linearGradient id="Unbenannter_Verlauf_17-21" x1="87.31" y1="745.68" x2="494.43" y2="596.65" gradientTransform="matrix(1, 0, 0, 1, 0, 0)" xlink:href="#Unbenannter_Verlauf_17"/></defs><g id="Ebene_2" data-name="Ebene 2"><g id="Ebene_1-2" data-name="Ebene 1"><g id="Ebene_6" data-name="Ebene 6"><ellipse class="cls-1" cx="286.83" cy="473.58" rx="262.97" ry="23.68"/></g><g id="Ebene_1-3" data-name="Ebene 1"><g id="_Radiale_Wiederholung_" data-name=" Radiale Wiederholung "><path class="cls-2" d="M513.53,234.26,453.38,171l2.16-87.23a13.79,13.79,0,0,0-13.43-14.14h0L354.85,67.5,294.68,4.29a13.8,13.8,0,0,0-19.51-.49h0L212,64,124.72,61.8a13.79,13.79,0,0,0-14.14,13.43v0l-2.17,87.23L45.2,222.64a13.8,13.8,0,0,0-.49,19.51h0l60.18,63.25-2.21,87.2a13.8,13.8,0,0,0,13.45,14.14h0l87.23,2.17,60.15,63.21a13.82,13.82,0,0,0,19.52.49l63.22-60.16,87.23,2.16a13.8,13.8,0,0,0,14.19-13.38v-.07l2.17-87.23,63.21-60.16A13.8,13.8,0,0,0,513.53,234.26Zm-19.24,17.45L441.41,302l-5.84,5.56-.2,8.06-1.81,73a11.55,11.55,0,0,1-11.83,11.25l-73-1.81-8-.2h0l-5.84,5.55L282,453.77a11.53,11.53,0,0,1-16.29-.34l0,0-50.33-52.88-5.56-5.84-8.11-.28-73-1.81a11.54,11.54,0,0,1-11.25-11.82h0l1.81-73,.2-8.05h0l-5.55-5.84L63.57,241a11.52,11.52,0,0,1,.38-16.3l0,0,52.89-50.26,5.84-5.56.2-8.06,1.81-73a11.54,11.54,0,0,1,11.81-11.26h0l73,1.81,3.41.08,4.64.12h0L223.43,73l52.89-50.32a11.53,11.53,0,0,1,16.3.39l0,0L343,76l2.35,2.48,3.21,3.36,8.06.2,73,1.81a11.56,11.56,0,0,1,11.26,11.83l-1.81,73-.2,8.05h0l5.55,5.84,50.29,52.88a11.52,11.52,0,0,1-.38,16.3Z"/></g></g><g id="Ebene_2-2" data-name="Ebene 2"><path class="cls-3" d="M352.56,270c0,17.73,9.61,14.38,9.61,27.11V354h-9.94V294.13c0-8.81-5.75-16-12.86-16s-12.86,7.14-12.86,16v50.56a85.31,85.31,0,0,1-15.2,9.29V293.57c0-22-14.41-39.91-32.18-39.91S247,271.53,247,293.57V354a85.22,85.22,0,0,1-15.19-9.29V294.13c0-8.81-5.77-16-12.87-16s-12.85,7.14-12.85,16V354H196.1V297.06c0-12.73,9.6-9.38,9.6-27.11,0-14.95-22.07-8.18-22.07-36.19,0-106.7,95.5-84.87,95.5-127.6,0,42.73,95.51,20.9,95.51,127.6C374.68,261.77,352.56,255,352.56,270Z"/><path class="cls-4" d="M317.49,195.72a37.5,37.5,0,1,1-48.58-38.94,31.58,31.58,0,1,0,48.58,38.94Z"/><polygon class="cls-4" points="298.39 187.01 289.9 185.4 283.76 191.48 282.67 182.9 274.99 178.94 282.81 175.25 284.2 166.72 290.12 173.02 298.67 171.71 294.51 179.29 298.39 187.01"/></g><path class="cls-5" d="M269,455.67a33.8,33.8,0,0,0-7.54,4.1c-3.74-2.92-9.74-6.08-26.74-8.17C195.12,446.74,0,463.22,0,463.22L14,443s6.36,3.81,12.13,4.91c13.13,2.52,33-1.65,38.66-2.65s48.82-10.29,57.08-11.62,36-5.3,58.2-3c16,1.69,31.91,4,44.31,7.28S269,455.67,269,455.67Z"/><path class="cls-6" d="M273.3,454.24a34.43,34.43,0,0,0-4.34,1.43S236.78,441.3,224.39,438s-28.27-5.58-44.31-7.28c-22.16-2.32-50,1.66-58.2,3S70.44,444.33,64.8,445.32,39.27,450.49,26.14,448c-5.77-1.1-12.13-4.91-12.13-4.91l66.07-94.85,6.12-.44,3-6.3,8.25-.68-71,96.41a215.91,215.91,0,0,0,30.79,2.47c15.77,0,32.29-5.63,54.81-12.6s37.81-9.19,66.34-7.53,52.68,8.64,62.83,14.27C249.78,438.54,272.58,453.76,273.3,454.24Z"/><path class="cls-7" d="M281.42,453.21a30.4,30.4,0,0,0-8.11,1h0c-.72-.48-23.52-15.7-32-20.45-10.15-5.63-34.3-12.61-62.83-14.27s-43.81.56-66.34,7.53-39,12.6-54.81,12.6a215.91,215.91,0,0,1-30.79-2.47l71-96.41,3-6.3,7.15-.33L42.69,427s-1.51,2.66,13.89,2.48,22.52-7.79,48.81-14.09,53.7-8.54,81.09-5.31,56,11.94,69.1,18.58C267.48,434.74,279.34,450.4,281.42,453.21Z"/><path class="cls-8" d="M281.68,453.22h-.3c-2.08-2.83-13.94-18.47-25.87-24.5-13.15-6.64-41.68-15.36-69.1-18.58a231.47,231.47,0,0,0-81.09,5.31C79,421.76,71.93,429.4,56.55,429.53s-13.87-2.48-13.87-2.48l65-92.91,3.37-6s9.39,1,18,1.64,21.77-1,29.65-2,21.38-7.38,42-6.38,36.8,3.77,52.57,12.72a197.37,197.37,0,0,1,25.57,17s3.08,2.35,3.08,2.68Z"/><path class="cls-9" d="M281.68,453.21v13.92c-14.34-.51-15.58-3.76-20.3-7.36a37.46,37.46,0,0,1,12-5.53h0A31.42,31.42,0,0,1,281.68,453.21Z"/><path class="cls-10" d="M281.94,453.22h-.26"/><polyline class="cls-11" points="281.43 470.56 281.43 467.13 281.43 453.2"/><path class="cls-12" d="M294.4,455.67a33.8,33.8,0,0,1,7.54,4.1c3.77-2.92,9.77-6.08,26.77-8.17,39.56-4.86,234.68,11.62,234.68,11.62l-14-20.18S543,446.85,537.26,448c-13.13,2.52-33-1.65-38.66-2.65S449.78,435,441.52,433.68s-36-5.3-58.2-3c-16,1.69-31.91,4-44.31,7.28S294.4,455.67,294.4,455.67Z"/><path class="cls-13" d="M290.06,454.24a34.43,34.43,0,0,1,4.34,1.43S326.58,441.3,339,438s28.27-5.59,44.31-7.28c22.16-2.32,50,1.66,58.2,3s51.44,10.63,57.08,11.62,25.53,5.17,38.66,2.65c5.77-1.1,12.13-4.91,12.13-4.91l-66.07-94.87-6.12-.44-3-6.3-8.25-.68,71,96.41a215.91,215.91,0,0,1-30.79,2.47c-15.77,0-32.29-5.63-54.81-12.6s-37.81-9.19-66.34-7.53-52.68,8.64-62.83,14.27C313.58,438.54,290.78,453.76,290.06,454.24Z"/><path class="cls-14" d="M281.94,453.21a30.4,30.4,0,0,1,8.11,1h0c.72-.48,23.52-15.7,32-20.45,10.15-5.63,34.3-12.61,62.83-14.27s43.81.56,66.34,7.53,39,12.6,54.81,12.6a215.91,215.91,0,0,0,30.79-2.47l-71-96.41-3-6.3-7.15-.33,65,92.91s1.51,2.66-13.89,2.48-22.52-7.79-48.81-14.09-53.7-8.54-81.09-5.31-56,11.94-69.1,18.58C295.88,434.74,284,450.4,281.94,453.21Z"/><path class="cls-15" d="M281.68,453.22h.3c2.08-2.83,13.94-18.47,25.87-24.5,13.15-6.64,41.68-15.36,69.1-18.58A231.47,231.47,0,0,1,458,415.45c26.28,6.31,33.43,13.93,48.81,14.09s13.83-2.49,13.83-2.49l-65-92.91-3.37-6s-9.39,1-18,1.64-21.77-1-29.65-2-21.38-7.38-42-6.38-36.8,3.77-52.57,12.72a183.89,183.89,0,0,0-26.27,18,19.14,19.14,0,0,0-1.86,1.74Z"/><path class="cls-16" d="M281.68,453.21v13.92c14.34-.51,15.58-3.76,20.3-7.36a37.46,37.46,0,0,0-12-5.53h0A31.42,31.42,0,0,0,281.68,453.21Z"/><path class="cls-10" d="M281.68,453.22h-.22"/><polyline class="cls-11" points="281.94 453.2 281.94 467.13 281.94 470.56"/><g id="_Radiale_Wiederholung_2" data-name=" Radiale Wiederholung 2" class="cls-17"><path class="cls-18" d="M484,234.76l-52.57-55.24,1.9-76.22a12.06,12.06,0,0,0-11.75-12.36h0L345.3,89.05,292.74,33.81a12.08,12.08,0,0,0-17.06-.41L220.45,86l-76.22-1.9a12.06,12.06,0,0,0-12.36,11.75L130,172.05,74.74,224.6a12.07,12.07,0,0,0-.42,17.05l52.56,55.24L125,373.11a12.05,12.05,0,0,0,11.73,12.36h0L213,387.4l52.56,55.24a12.07,12.07,0,0,0,17,.42l55.24-52.56L414,392.4a12.06,12.06,0,0,0,12.36-11.75l1.89-76.25,55.24-52.56a12.07,12.07,0,0,0,.44-17.06ZM467.14,250l-46.21,44-5.1,4.86-.18,7-1.58,63.78a10.09,10.09,0,0,1-10.34,9.83L340,377.9l-7-.17h0l-5.1,4.85-46.22,44a10.07,10.07,0,0,1-14.24-.33l0,0-44-46.21-4.85-5.1-7-.18-63.84-1.6a10.09,10.09,0,0,1-9.83-10.34L139.43,299l.17-7h0l-4.85-5.1-44-46.21a10.09,10.09,0,0,1,.35-14.27h0l46.21-44,5.1-4.86.18-7,1.58-63.78A10.09,10.09,0,0,1,154.51,97l63.77,1.58,3,.07,4.05.1h0l5.1-4.85,46.21-44a10.07,10.07,0,0,1,14.24.33l0,0,44,46.21L337,98.61l2.8,2.93,7,.18,63.78,1.58a10.09,10.09,0,0,1,9.83,10.34l-1.53,63.76-.17,7h0l4.85,5.1,44,46.21a10.1,10.1,0,0,1-.34,14.27Z"/></g><path class="cls-19" d="M242.92,569.55q0,.72-1.17.72a7.13,7.13,0,0,1-1.17-.09c-3.59-.16-6.68-.25-9.25-.25s-6.64.09-11.85.25q-2.61.09-3.87.09c-.89,0-1.34-.25-1.34-.76,0-.28.16-.45.49-.5s1.48-.11,3.46-.17c1.85-.34,2.93-.85,3.23-1.55s.45-3,.45-6.77V517c-.06-1-.09-1.48-.09-1.43,0-1.39-1.5-2.1-4.49-2.1-1.68,0-2.51-.19-2.51-.58s.11-.62.36-.68a18.22,18.22,0,0,1,2.33-.08h23.62c.78,0,1.17.21,1.17.64a.55.55,0,0,1-.41.59,17.8,17.8,0,0,1-2.73.2c-1.86.11-3,.47-3.42,1.09l-.27,1.59v47.39c0,2.4.29,3.83.86,4.28s2.5.75,5.79.92C242.65,568.9,242.92,569.14,242.92,569.55Z"/><path class="cls-20" d="M292.94,552.29c0,.23-.33,2.21-1,6q-.7,4.2-1.79,12.09H254.5c-1.85,0-3.44,0-4.76.1-1.73.1-3.32.15-4.76.15-.78,0-1.16-.19-1.16-.58a1.51,1.51,0,0,1,.35-.84q1.8-2.52,6.92-11.6l19-32.92q4.31-7.23,5.66-10.25-2.16-.17-8.08-.17-8.35,0-12.4,3.28a22.39,22.39,0,0,0-6.73,9.66c-.36,1-.78,1.51-1.26,1.51s-.72-.25-.72-.76a2.64,2.64,0,0,1,.27-1.09q.72-3.2,3.32-15,4.86.6,22.19.59,6.28,0,12.3-.39c2-.13,3.23-.2,3.77-.2q1.35,0,2.43.09c-.3,1.31-1.48,3.78-3.56,7.41q-4.14,6.88-12.34,20.81-1.08,1.85-16.33,28.24,10.32,0,11.76-.09,7.72-.25,11.67-1.76,6.19-2.36,9.07-13.87c.18-.84.54-1.26,1.07-1.26S292.94,551.68,292.94,552.29Z"/><path class="cls-21" d="M351.14,566.91q0,4.7-6.56,4.7-8.26,0-13.2-4.88a13.78,13.78,0,0,1-4.4-8.09l-.9-6.9q-.9-6.57-3.28-9.19T315.13,540v19.12c0,4.44,0,6.83.09,7.16a2,2,0,0,0,1.25,2,13.6,13.6,0,0,0,4.76.55c1.44,0,2.16.25,2.16.76s-.36.67-1.08.67H295.19q-1.26,0-1.26-.6c0-.45,1.23-.73,3.68-.83,2-.11,3.24-.56,3.59-1.35a12.57,12.57,0,0,0,.27-3.54V520.57a39.12,39.12,0,0,0-.18-5.19,1.79,1.79,0,0,0-1.16-1.22,11.94,11.94,0,0,0-4-.5c-1.32,0-2-.25-2-.76s.27-.63.81-.72a43,43,0,0,1,4.31-.12h18q12.57,0,17.16,1.84a12.85,12.85,0,0,1,5.74,4.37,10.69,10.69,0,0,1,2.16,6.47q0,8.07-9,11.93a43.46,43.46,0,0,1-11.68,2.52l-.09.5q9.8.59,14.19,4.83t5.3,13.74q.72,7.56,2.25,9.45a4.17,4.17,0,0,0,3.14,1.89c.9,0,1.35-.23,1.35-.68,0-.22-.35-.53-1-.92a1.85,1.85,0,0,1-1-1.68c0-1.51.9-2.27,2.7-2.27S351.14,565,351.14,566.91Zm-22.72-42.42q0-10.85-9.16-10.84c-2,0-3.21.62-3.69,1.85-.3.79-.44,3.84-.44,9.16V538.6q7,.09,10.14-3.28T328.42,524.49Z"/><path class="cls-22" d="M65.78,585h8v32.2h-8Z"/><path class="cls-23" d="M79.21,614l2.7-5.61a21.23,21.23,0,0,0,11.36,3.36c4.73,0,6.64-1.48,6.64-3.45,0-6-20-1.89-20-13.85,0-5.48,4.72-10,14.51-10a24.33,24.33,0,0,1,12,2.85l-2.46,5.66a20.5,20.5,0,0,0-9.54-2.53c-4.72,0-6.54,1.66-6.54,3.68,0,5.93,20,1.84,20,13.66,0,5.39-4.77,10-14.6,10C87.77,617.74,82.26,616.22,79.21,614Z"/><path class="cls-24" d="M113.29,585h8v26.13h17.26v6.07H113.29Z"/><path class="cls-25" d="M166,610.28H150l-3,6.9h-8.16L154.11,585H162l15.39,32.2H169Zm-2.5-5.65L158,592.3l-5.46,12.33Z"/><path class="cls-26" d="M212.29,617.18l0-19.32-10.14,15.92h-3.59l-10.08-15.5v18.9H181V585h6.59l12.88,20,12.69-20h6.54l.1,32.2Z"/><path class="cls-27" d="M241.86,585h8v32.2h-8Z"/><path class="cls-28" d="M255.28,614,258,608.4a21.2,21.2,0,0,0,11.36,3.36c4.72,0,6.64-1.48,6.64-3.45,0-6-20-1.89-20-13.85,0-5.48,4.72-10,14.51-10a24.31,24.31,0,0,1,11.95,2.85L280,592.94a20.5,20.5,0,0,0-9.54-2.53c-4.72,0-6.54,1.66-6.54,3.68,0,5.93,20,1.84,20,13.66,0,5.39-4.77,10-14.6,10C263.84,617.74,258.33,616.22,255.28,614Z"/><path class="cls-29" d="M296,591.05H285V585h30v6.07H304v26.13h-8Z"/><path class="cls-30" d="M333.19,585h8v26.13h17.27v6.07H333.19Z"/><path class="cls-31" d="M389.55,611.2v6H362.89V585h26v6h-18.1v7h16v5.8h-16v7.45Z"/><path class="cls-32" d="M427.47,608.4c0,5.56-4.72,8.78-13.77,8.78H395.89V585h16.82c8.61,0,13,3.36,13,8.37a7.7,7.7,0,0,1-4.58,7.09C425,601.59,427.47,604.35,427.47,608.4Zm-23.66-17.81v7.59h7.92c3.88,0,6-1.28,6-3.81s-2.12-3.78-6-3.78Zm15.64,17c0-2.72-2.21-4-6.34-4h-9.3v8h9.3C417.24,611.57,419.45,610.38,419.45,607.62Z"/><path class="cls-33" d="M460.17,611.2v6H433.52V585h26v6H441.44v7h16v5.8h-16v7.45Z"/><path class="cls-34" d="M498.09,585v32.2h-6.54l-17.16-19.55v19.55h-7.87V585h6.59l17.12,19.55V585Z"/></g></g></svg>