<svg xmlns="http://www.w3.org/2000/svg" xmlns:xlink="http://www.w3.org/1999/xlink" viewBox="0 0 115.55 128.61"><defs><style>.cls-1{fill:none;}.cls-2{clip-path:url(#clip-path);}.cls-3{fill:#c1851b;}.cls-4{fill:#f4e2d3;}.cls-5{fill:#f3b940;}.cls-6{fill:#6d1805;}.cls-7{fill:#f2440f;}.cls-8{fill:#ededed;}.cls-9{fill:#18a1d1;}.cls-10{fill:#e8cdb8;}.cls-11{fill:#e29435;}.cls-12{fill:#f9e0af;}.cls-13{fill:#eac37f;}.cls-14{fill:#e77d89;}.cls-15{fill:#d56d7a;}.cls-16{fill:#ef95a1;}.cls-17{fill:#ab4852;}.cls-18{fill:#89313a;}.cls-19{fill:#54300c;}.cls-20{fill:#ecaf83;}.cls-21{fill:#f5e3d8;}.cls-22{fill:#f5d8c7;}.cls-23{fill:#2d1704;}.cls-24{fill:#e93f25;}.cls-25{fill:#7f450a;}.cls-26{fill:#d75751;}.cls-27{fill:#015d72;}.cls-28{fill:#098caf;}.cls-29{fill:#4c453f;}</style><clipPath id="clip-path" transform="translate(-0.02 -3.78)"><rect class="cls-1" width="115.6" height="132.86"/></clipPath></defs><g id="Ebene_2" data-name="Ebene 2"><g id="Ebene_1-2" data-name="Ebene 1"><g class="cls-2"><path class="cls-3" d="M41.09,113.39s5.55.44,6,3.24l-1.82,1.19-3.86-1Z" transform="translate(-0.02 -3.78)"/><path class="cls-4" d="M45,99.35s6.11,7.41-3.49,15.46l3.77,3s11.79-12.6,8-20.52Z" transform="translate(-0.02 -3.78)"/><path class="cls-5" d="M41.09,113.39s1.83,4.3,6,3.24c0,0-.64,1.31-1.28,1.57a1,1,0,0,1-.59,1.37s-3.91,1.56-6.43-3.07c0,0,.13-.64,1.44-1.18A2,2,0,0,1,41.09,113.39Z" transform="translate(-0.02 -3.78)"/><path class="cls-6" d="M35.9,118.59s-.87-.18-1.9,1c0,0,2.6,10.57,12.9,12.73,0,0,3.62.51,2.67-2.16Z" transform="translate(-0.02 -3.78)"/><path class="cls-7" d="M38.91,116.12s1.41,4.81,6.93,3.24c0,0,6.4,7.28,3.73,10.83,0,0,.07,1.13-4.16-.18,0,0-9.17-5-9.53-11.42C35.9,118.59,36.65,116,38.91,116.12Z" transform="translate(-0.02 -3.78)"/><path class="cls-6" d="M45.31,121.65a1.07,1.07,0,0,1,.25.35,1.06,1.06,0,0,1,.09.42,1.14,1.14,0,0,1-.07.41,1,1,0,0,1-.23.35,1,1,0,0,1-.34.22,1,1,0,0,1-.41.07,1,1,0,0,1-.42-.09,1,1,0,0,1-.35-.24,1,1,0,0,1-.25-.36,1.43,1.43,0,0,1-.09-.41,1.14,1.14,0,0,1,.07-.41,1.18,1.18,0,0,1,.23-.35,1,1,0,0,1,.34-.22,1.15,1.15,0,0,1,.41-.08,1.18,1.18,0,0,1,.42.1A1,1,0,0,1,45.31,121.65Z" transform="translate(-0.02 -3.78)"/><path class="cls-8" d="M44.33,122a3.71,3.71,0,0,1,2.8-1.11l.51.9a2.34,2.34,0,0,0-2.72,1S43.81,123,44.33,122Z" transform="translate(-0.02 -3.78)"/><path class="cls-6" d="M47.24,124.24a1,1,0,0,1,.31.7.93.93,0,0,1-.27.68.87.87,0,0,1-.68.27.94.94,0,0,1-.7-.3,1,1,0,0,1-.31-.7.93.93,0,0,1,.27-.68.87.87,0,0,1,.68-.27A1,1,0,0,1,47.24,124.24Z" transform="translate(-0.02 -3.78)"/><path class="cls-8" d="M46.36,124.53a3.32,3.32,0,0,1,2.51-1l.47.82a2.11,2.11,0,0,0-2.47,1S45.89,125.48,46.36,124.53Z" transform="translate(-0.02 -3.78)"/><path class="cls-8" d="M45.38,129.49a2,2,0,0,0,0,.49s0,0,0,0c4.24,1.28,4.16.18,4.16.18a4.16,4.16,0,0,0,.47-3.6.19.19,0,0,1-.13,0C47.62,126.33,45.59,127.64,45.38,129.49Z" transform="translate(-0.02 -3.78)"/><path class="cls-3" d="M67.83,105.11a10.39,10.39,0,0,1,6.68-1.23l-1,3.24-3.6.59Z" transform="translate(-0.02 -3.78)"/><path class="cls-4" d="M62.07,91.74s9.4,1.93,7,14.25l4.81-.06s1.28-17.23-6.6-21Z" transform="translate(-0.02 -3.78)"/><path class="cls-5" d="M67.83,105.11s4.11,2.19,6.68-1.23a4.12,4.12,0,0,1,0,2,1,1,0,0,1,.41,1.44S72.84,111,68,109c0,0-.31-.59.39-1.8A2,2,0,0,1,67.83,105.11Z" transform="translate(-0.02 -3.78)"/><path class="cls-6" d="M67.06,112.42s-.77.41-.82,2c0,0,8.65,6.59,18,1.8,0,0,3.16-1.88.72-3.37Z" transform="translate(-0.02 -3.78)"/><path class="cls-7" d="M67.7,108.66s4.26,2.8,7.58-1.9c0,0,9.55,1.64,9.68,6.09,0,0,.77.83-3.34,2.47,0,0-10.3,1.85-14.59-2.93C67.06,112.42,66.39,110.13,67.7,108.66Z" transform="translate(-0.02 -3.78)"/><path class="cls-6" d="M76.28,108.89a1.21,1.21,0,0,1,.42.13,1.15,1.15,0,0,1,.33.26,1,1,0,0,1,.2.37,1.12,1.12,0,0,1,0,.41,1.06,1.06,0,0,1-.13.39,1,1,0,0,1-.27.31,1,1,0,0,1-.38.19,1.26,1.26,0,0,1-.43,0,1.16,1.16,0,0,1-.41-.13.93.93,0,0,1-.33-.26,1,1,0,0,1-.21-.37,1.12,1.12,0,0,1,0-.41,1.06,1.06,0,0,1,.13-.39,1.18,1.18,0,0,1,.27-.32,1.07,1.07,0,0,1,.39-.18A1.2,1.2,0,0,1,76.28,108.89Z" transform="translate(-0.02 -3.78)"/><path class="cls-8" d="M75.74,109.74a3.69,3.69,0,0,1,1.49-2.62l1,.38A2.36,2.36,0,0,0,76.74,110S76,110.87,75.74,109.74Z" transform="translate(-0.02 -3.78)"/><path class="cls-6" d="M79.43,109.69a1,1,0,0,1,.67.35.86.86,0,0,1,.22.7.93.93,0,0,1-.36.64,1,1,0,0,1-.73.2,1,1,0,0,1-.68-.35.91.91,0,0,1-.22-.7.89.89,0,0,1,.36-.64A1,1,0,0,1,79.43,109.69Z" transform="translate(-0.02 -3.78)"/><path class="cls-8" d="M78.92,110.46a3.34,3.34,0,0,1,1.34-2.37l.87.34a2.14,2.14,0,0,0-1.33,2.29S79.15,111.49,78.92,110.46Z" transform="translate(-0.02 -3.78)"/><path class="cls-8" d="M85,112.85c.13-1.93-1.15-2.54-2.28-3.39-2.08.51-2.65,5.48-2.62,6.07,1-.11,1.57-.21,1.57-.21C85.65,114.22,85,112.85,85,112.85Z" transform="translate(-0.02 -3.78)"/><path class="cls-9" d="M38.6,92s-.1,7.75-2.34,9.73c0,0,25.22,4,34.21-17.77,0,0-8.4-4.22-10.68-7.08Z" transform="translate(-0.02 -3.78)"/><path class="cls-10" d="M42.56,56.32A2.94,2.94,0,0,1,42,58.74s3.55,1.49,5.58-1.36c0,0-1.31-.39-1-2.7Z" transform="translate(-0.02 -3.78)"/><path class="cls-5" d="M115.57,37.63l-32.92,1L14.23,76.28a3.55,3.55,0,0,0-.93.41c-4,2.24-4.39,9.29-.82,15.74s9,10.5,13,8.26a1.53,1.53,0,0,0,.16-.13L98.21,67.2Z" transform="translate(-0.02 -3.78)"/><path class="cls-11" d="M106.3,53.44,89.61,54,21.16,91.58a5,5,0,0,0-.95.41c-2,1.14-3.11,3.48-3.26,6.33,2.85,2.65,6,3.76,8.53,2.34a.58.58,0,0,0,.15-.13L98.19,67.18Z" transform="translate(-0.02 -3.78)"/><path class="cls-12" d="M82.67,38.63l-.46.26c-1.57,1-6.16,5.47,1.54,20.11,0,0,7.48,11.39,14.49,8.23l17.33-29.6Z" transform="translate(-0.02 -3.78)"/><path class="cls-13" d="M83.16,57.84c.18.39.39.77.59,1.16,0,0,7.48,11.39,14.49,8.23l17.33-29.6Z" transform="translate(-0.02 -3.78)"/><path d="M103.27,38a8.88,8.88,0,0,0,1.08,8.05,8,8,0,0,0,4.6,2.86l6.62-11.29Z" transform="translate(-0.02 -3.78)"/><path class="cls-14" d="M28.35,68.51l-14.1,7.77a3.64,3.64,0,0,0-.92.41c-4,2.24-4.39,9.29-.82,15.74s9,10.5,13,8.26a.87.87,0,0,0,.15-.13l15.77-7.25C27.71,87.16,27.33,75.23,28.35,68.51Z" transform="translate(-0.02 -3.78)"/><path class="cls-15" d="M31.87,85.87l-.79.39L15.31,93.51l-.16.11a5.1,5.1,0,0,1-1.64.54c3.54,5.4,8.32,8.53,12,6.5a.58.58,0,0,0,.15-.13L41.4,93.28A22.55,22.55,0,0,1,31.87,85.87Z" transform="translate(-0.02 -3.78)"/><path class="cls-16" d="M15.85,93.13c-3.57-6.46-3.19-13.51.82-15.74a7,7,0,0,1,.92-.41L28,71.24a24.17,24.17,0,0,1,.31-2.73l-14.1,7.77a3.64,3.64,0,0,0-.92.41c-4,2.24-4.39,9.29-.82,15.74,3,5.48,7.37,9.21,11.09,8.85C20.78,100,18,97,15.85,93.13Z" transform="translate(-0.02 -3.78)"/><path class="cls-17" d="M30.05,67.56,25.55,70c-1.59,4-1,9.8,2,15.25,2.72,4.91,6.78,8.36,10.64,9.52l7.7-3.55c-4.62,0-10-3.83-13.38-9.93C29.92,76.51,29.12,71.45,30.05,67.56Z" transform="translate(-0.02 -3.78)"/><path class="cls-18" d="M30.05,67.56l-1.29.7c-.92,3.85-.12,8.92,2.49,13.68,3.34,6,8.66,9.82,13.21,10l1.43-.67c-4.62,0-10-3.83-13.38-9.92C29.92,76.51,29.12,71.45,30.05,67.56Z" transform="translate(-0.02 -3.78)"/><path d="M103.27,38a8.88,8.88,0,0,0,1.08,8.05,8,8,0,0,0,4.6,2.86l6.62-11.29Z" transform="translate(-0.02 -3.78)"/><path class="cls-4" d="M64.33,32.87c0,.81,0,1.62-.11,2.42A25,25,0,0,1,63.27,40a23,23,0,0,1-.81,2.29c-.31.74-.66,1.48-1,2.19s-.8,1.41-1.24,2.08-.93,1.32-1.45,1.95-1,1.22-1.62,1.79A23,23,0,0,1,55.31,52a22.75,22.75,0,0,1-1.94,1.45c-.68.45-1.37.86-2.08,1.25s-1.44.72-2.19,1-1.51.58-2.28.82-1.56.43-2.35.59a21.34,21.34,0,0,1-2.4.35c-.8.08-1.61.12-2.42.12s-1.61,0-2.42-.12a21.51,21.51,0,0,1-2.39-.35c-.79-.16-1.58-.36-2.35-.59S31,56,30.21,55.7s-1.48-.65-2.19-1-1.41-.8-2.08-1.25A22.75,22.75,0,0,1,24,52a21.35,21.35,0,0,1-1.8-1.63c-.57-.57-1.11-1.17-1.63-1.79s-1-1.28-1.44-1.95-.86-1.37-1.24-2.08-.73-1.45-1-2.19S16.27,40.82,16,40a26,26,0,0,1-.94-4.75c-.08-.8-.12-1.61-.12-2.42s0-1.62.12-2.42A26.38,26.38,0,0,1,16,25.69c.24-.77.51-1.53.82-2.28s.66-1.48,1-2.19a22.82,22.82,0,0,1,1.24-2.08,23.36,23.36,0,0,1,1.44-1.95c.52-.63,1.06-1.23,1.63-1.8s1.17-1.11,1.8-1.63,1.27-1,1.94-1.44,1.37-.87,2.08-1.25,1.44-.73,2.19-1a22.86,22.86,0,0,1,2.28-.81,23.75,23.75,0,0,1,2.35-.59c.79-.16,1.59-.28,2.39-.36s1.62-.12,2.42-.12,1.62,0,2.42.12a23.93,23.93,0,0,1,2.4.36c.79.16,1.57.35,2.35.59A23.79,23.79,0,0,1,49.1,10c.75.31,1.48.66,2.19,1s1.4.8,2.08,1.25,1.32.93,1.94,1.44,1.22,1.06,1.8,1.63a23.09,23.09,0,0,1,1.62,1.8,21.42,21.42,0,0,1,1.45,1.95c.44.67.86,1.36,1.24,2.08s.73,1.44,1,2.19a25.26,25.26,0,0,1,1.76,7C64.3,31.25,64.33,32.06,64.33,32.87Z" transform="translate(-0.02 -3.78)"/><path class="cls-19" d="M39.32,38.42a.3.3,0,0,1-.33-.25,2.94,2.94,0,0,1,.38-1.93,1.93,1.93,0,0,1,1.31-.75c.23-.05,1.93-.31,2.49,1.9a.35.35,0,0,1-.23.42.33.33,0,0,1-.41-.24c-.44-1.64-1.62-1.44-1.75-1.41h0a1.48,1.48,0,0,0-.9.49,2.07,2.07,0,0,0-.31,1.41C39.63,38.22,39.5,38.35,39.32,38.42Z" transform="translate(-0.02 -3.78)"/><path class="cls-19" d="M54.37,36.42a.32.32,0,0,1-.33-.26,2.94,2.94,0,0,1,.38-1.93,1.92,1.92,0,0,1,1.31-.74,2.24,2.24,0,0,1,1.46.23,2.46,2.46,0,0,1,1.06,1.67.33.33,0,0,1-.64.18,1.75,1.75,0,0,0-.75-1.24,1,1,0,0,0-1-.12h0a1.47,1.47,0,0,0-.9.48,2.1,2.1,0,0,0-.31,1.42c.05.18-.07.31-.25.38Z" transform="translate(-0.02 -3.78)"/><path class="cls-20" d="M52,39a.93.93,0,0,1-.13.53,1.53,1.53,0,0,1-.45.47,2.47,2.47,0,0,1-.69.34,3.22,3.22,0,0,1-.83.17,4,4,0,0,1-.85,0,2.68,2.68,0,0,1-.74-.24,1.38,1.38,0,0,1-.51-.39.85.85,0,0,1-.08-1,1.62,1.62,0,0,1,.44-.47,2.79,2.79,0,0,1,.69-.35,3.38,3.38,0,0,1,.84-.16,3,3,0,0,1,.85,0,2.79,2.79,0,0,1,.74.23,1.59,1.59,0,0,1,.51.4A1,1,0,0,1,52,39Z" transform="translate(-0.02 -3.78)"/><path class="cls-21" d="M50.87,38.36c0,.12-.09.23-.31.33a2.09,2.09,0,0,1-.8.19,2.18,2.18,0,0,1-.83-.06c-.23-.07-.35-.16-.36-.28s.09-.23.31-.34a2.54,2.54,0,0,1,.81-.19,2.33,2.33,0,0,1,.82.07C50.74,38.14,50.86,38.24,50.87,38.36Z" transform="translate(-0.02 -3.78)"/><path class="cls-22" d="M41,44.54a5.26,5.26,0,0,1-.08.89,5.2,5.2,0,0,1-.26.85,4.21,4.21,0,0,1-.42.78,4.05,4.05,0,0,1-.56.68,4.18,4.18,0,0,1-.69.57,4.84,4.84,0,0,1-.78.42,4,4,0,0,1-.85.25,4.31,4.31,0,0,1-.88.09,4.81,4.81,0,0,1-1.73-.34,5.86,5.86,0,0,1-.78-.42,4.11,4.11,0,0,1-.68-.57,4.67,4.67,0,0,1-.57-.68,4.84,4.84,0,0,1-.41-.78,4.5,4.5,0,0,1,0-3.47,4.84,4.84,0,0,1,.41-.78,4.75,4.75,0,0,1,.57-.69,4.6,4.6,0,0,1,.68-.56,5.86,5.86,0,0,1,.78-.42A4.31,4.31,0,0,1,36.44,40a5.14,5.14,0,0,1,.88.08,4.66,4.66,0,0,1,.85.26,4.84,4.84,0,0,1,.78.42,4.69,4.69,0,0,1,.69.56,4.12,4.12,0,0,1,.56.69,4.21,4.21,0,0,1,.42.78A4.31,4.31,0,0,1,41,44.54Z" transform="translate(-0.02 -3.78)"/><path class="cls-22" d="M61.43,38.45a4.53,4.53,0,0,0-4.16,4.89,4.47,4.47,0,0,0,2.6,3.72,24.94,24.94,0,0,0,3.75-8.23A4.88,4.88,0,0,0,61.43,38.45Z" transform="translate(-0.02 -3.78)"/><path class="cls-23" d="M45.64,44.31s5,1.7,7.93-.41c0,0,1.31,6.82-4.62,7.59C49,51.46,44.33,51.69,45.64,44.31Z" transform="translate(-0.02 -3.78)"/><path class="cls-24" d="M52.16,50a2.21,2.21,0,0,0-2-1,2,2,0,0,0-2,2.18.65.65,0,0,1,0,.24,4.34,4.34,0,0,0,.69.07A5.1,5.1,0,0,0,52.16,50Z" transform="translate(-0.02 -3.78)"/><path class="cls-20" d="M45.89,40.33a.33.33,0,0,1-.1.25.36.36,0,0,1-.26.11.36.36,0,0,1-.25-.11.33.33,0,0,1-.1-.25.35.35,0,0,1,.1-.26.35.35,0,0,1,.25-.1.34.34,0,0,1,.36.36Z" transform="translate(-0.02 -3.78)"/><path class="cls-20" d="M44.84,41.48a.34.34,0,0,1-.36.36.33.33,0,0,1-.25-.1.36.36,0,0,1-.11-.26.38.38,0,0,1,.36-.36.36.36,0,0,1,.26.11A.33.33,0,0,1,44.84,41.48Z" transform="translate(-0.02 -3.78)"/><path class="cls-20" d="M46.79,41.43a.34.34,0,0,1-.36.36.33.33,0,0,1-.25-.1.36.36,0,0,1-.11-.26.38.38,0,0,1,.36-.36.36.36,0,0,1,.26.11A.33.33,0,0,1,46.79,41.43Z" transform="translate(-0.02 -3.78)"/><path class="cls-20" d="M54.76,39.17a.34.34,0,0,1-.11.25.36.36,0,0,1-.25.11.36.36,0,0,1-.26-.11.33.33,0,0,1-.1-.25.34.34,0,0,1,.36-.36.35.35,0,0,1,.25.1A.36.36,0,0,1,54.76,39.17Z" transform="translate(-0.02 -3.78)"/><path class="cls-20" d="M53.7,40.28a.35.35,0,0,1-.1.25.36.36,0,0,1-.26.11.34.34,0,0,1-.25-.11.36.36,0,0,1-.11-.25.36.36,0,0,1,.11-.26.33.33,0,0,1,.25-.1.34.34,0,0,1,.36.36Z" transform="translate(-0.02 -3.78)"/><path class="cls-20" d="M55.63,40.22a.36.36,0,0,1-.11.26.33.33,0,0,1-.25.1.34.34,0,0,1-.36-.36A.33.33,0,0,1,55,40a.36.36,0,0,1,.26-.11.38.38,0,0,1,.36.36Z" transform="translate(-0.02 -3.78)"/><path class="cls-25" d="M47.82,6.12l3.85.31c5.27,5.81,8.63-1.8,8.63-1.8-.07,9.64-3.8,7.71-3.8,7.71C63,13.55,64,11.21,64,11.21,60.12,20.34,52.11,18,52.11,18c2,2.47,6.83.44,6.83.44-4.62,4.06-12.33,1-12.33,1a8.28,8.28,0,0,0-6.26,1.67c4.13-1.67,5.54,1.81,5.54,1.81a4.44,4.44,0,0,1,.62,3.42c-8-7.64-12.48-1.7-12.48-1.7C28.89,33.15,33.36,35,33.36,35c-2,1.21-3.65-3.32-3.65-3.32-3.08,5,0,12.86,0,12.86,1.39,5.43-1.16,5.71-1.16,5.71,1.88-2.65-2.28-5.86-2.28-5.86A10.37,10.37,0,0,0,28,57.15c-4.64,0-5.65-3.3-5.65-3.3s-1.87,5-7.67,2.14c0,0,6,.2,3.41-5.45C18.13,50.54,12.33,17.77,47.82,6.12Z" transform="translate(-0.02 -3.78)"/><path class="cls-25" d="M44.15,5S23.68,0,12.45,21.68c0,0-7.29,16.41,1.73,27.73C14.15,49.38,16.38,19.21,44.15,5Z" transform="translate(-0.02 -3.78)"/><path class="cls-25" d="M12.71,41l-2.52-1.55S6.45,42.08,8.4,45.78c0,0-4.14,3.24-2.24,6.61,0,0-2.95,3.14-.69,5.79,0,0-3.75,4.34-1.88,6.68a1.3,1.3,0,0,0,.65.46A11.52,11.52,0,0,1,0,68.49c2.52,3.26,9.38,2.54,6.73.36a5.27,5.27,0,0,1-2-3.32c1.57.31,3.78-.82,2.13-6.94,0,0,3.7-1.93.87-5.82,0,0,3.22-1,2.19-6.07C9.94,46.65,12.58,46.29,12.71,41Z" transform="translate(-0.02 -3.78)"/><path class="cls-26" d="M54.78,6.79S21.93,13.43,18.64,52l-5.06-2.8S9,13.45,45.23,3.78Z" transform="translate(-0.02 -3.78)"/><path class="cls-27" d="M54.47,60.93s1.21,1.67-.33,4.83c0,0-1.23,3.81-3.13,3.29l-2.44-3,1.2-3.7Z" transform="translate(-0.02 -3.78)"/><path class="cls-4" d="M46.77,61.54s12.35,2.78,17.44-2.13c0,0-1.6-2.83-.47-3.94,0,0,.72-.48,1.88,1.21,0,0,3.93-3.57,4.67-3.16,0,0,1.88,1.08-2,4.12,0,0,2.52-1.73,3.62-1.73,0,0,1.65,1.29-2.7,3.5,0,0,3.19-.77,3.52.26,0,0,0,1.67-3.39,1.51,0,0,3.26.7,2.91,1.88,0,0-.31.85-4.19-.33a4.43,4.43,0,0,0-3.6.28S52.6,69,46.28,64.84Z" transform="translate(-0.02 -3.78)"/><path class="cls-9" d="M41.5,58.05S38,61,37.06,63.86c0,0,2.44-2.21,3.8-1.08,0,0,6,5.94,10.15,6.27,0,0-2.09-5.89,3.44-8.12,0,0-4.7,1.33-5.78-1.11a15,15,0,0,0-1.49-2.75S44.1,60.18,41.5,58.05Z" transform="translate(-0.02 -3.78)"/><path class="cls-28" d="M36.26,101.72s6.17-7.49,8.58-8.31c0,0,14.87-4.32,21.68-11.73L38.19,94.8S38.47,99,36.26,101.72Z" transform="translate(-0.02 -3.78)"/><path class="cls-29" d="M115.57,37.63l-12.3.38a9.22,9.22,0,0,0,.41,7Z" transform="translate(-0.02 -3.78)"/></g></g></g></svg>