<svg xmlns="http://www.w3.org/2000/svg" xmlns:xlink="http://www.w3.org/1999/xlink" viewBox="0 0 197.35 111.58"><defs><style>.cls-1{fill:none;}.cls-2{clip-path:url(#clip-path);}.cls-3{fill:#bfbdbc;}.cls-4{clip-path:url(#clip-path-2);}.cls-5{fill:#33302d;}.cls-6{fill:#12100b;}.cls-7{fill:#585452;}.cls-8{fill:#95aedb;}.cls-9{fill:#fff;}.cls-10{fill:#2fb3a1;}.cls-11{fill:#dfe7f4;}.cls-12{fill:#3e4c9b;}.cls-13{clip-path:url(#clip-path-6);}.cls-14{fill:#e1e0e0;}.cls-15{clip-path:url(#clip-path-7);}.cls-16{fill:#eae9ea;}.cls-17{clip-path:url(#clip-path-8);}.cls-18{fill:#d0cecd;}.cls-19{clip-path:url(#clip-path-9);}.cls-20{fill:#862d13;}.cls-21{fill:#a31a1f;}.cls-22{fill:#e4e2e3;}.cls-23{clip-path:url(#clip-path-13);}.cls-24{fill:#e3700f;}.cls-25{clip-path:url(#clip-path-14);}.cls-26{fill:#302d2a;}.cls-27{fill:#eb9b57;}.cls-28{fill:#6f6c6a;}.cls-29{clip-path:url(#clip-path-16);}.cls-30{fill:#405ca7;}.cls-31{fill:#f6e700;}.cls-32{clip-path:url(#clip-path-18);}.cls-33{fill:#fde300;}.cls-34{fill:#7a8dc2;}.cls-35{fill:#f9ee4d;}.cls-36{fill:#feeb4d;}.cls-37{clip-path:url(#clip-path-20);}.cls-38{fill:#a1c51c;}.cls-39{clip-path:url(#clip-path-21);}.cls-40{fill:#419435;}</style><clipPath id="clip-path" transform="translate(-0.04 -4.03)"><rect class="cls-1" width="197.42" height="115.6"/></clipPath><clipPath id="clip-path-2" transform="translate(-0.04 -4.03)"><rect class="cls-1" x="84.93" y="88.34" width="14.52" height="27.25"/></clipPath><clipPath id="clip-path-6" transform="translate(-0.04 -4.03)"><rect class="cls-1" x="190.48" y="108.79" width="6.91" height="6.81"/></clipPath><clipPath id="clip-path-7" transform="translate(-0.04 -4.03)"><rect class="cls-1" x="0.04" y="110.19" width="5.03" height="5.41"/></clipPath><clipPath id="clip-path-8" transform="translate(-0.04 -4.03)"><rect class="cls-1" x="3.95" y="104.87" width="13.4" height="10.73"/></clipPath><clipPath id="clip-path-9" transform="translate(-0.04 -4.03)"><rect class="cls-1" x="135.47" y="92.82" width="40.49" height="22.77"/></clipPath><clipPath id="clip-path-13" transform="translate(-0.04 -4.03)"><rect class="cls-1" x="104.47" y="67.06" width="49.43" height="48.54"/></clipPath><clipPath id="clip-path-14" transform="translate(-0.04 -4.03)"><rect class="cls-1" x="112.57" y="67.06" width="34.07" height="48.54"/></clipPath><clipPath id="clip-path-16" transform="translate(-0.04 -4.03)"><rect class="cls-1" x="56.72" y="81.62" width="34.63" height="33.98"/></clipPath><clipPath id="clip-path-18" transform="translate(-0.04 -4.03)"><rect class="cls-1" x="65.1" y="105.15" width="24.85" height="10.45"/></clipPath><clipPath id="clip-path-20" transform="translate(-0.04 -4.03)"><rect class="cls-1" x="165.07" y="101.51" width="14.24" height="14.09"/></clipPath><clipPath id="clip-path-21" transform="translate(-0.04 -4.03)"><rect class="cls-1" x="165.07" y="107.67" width="14.24" height="7.93"/></clipPath></defs><g id="Ebene_2" data-name="Ebene 2"><g id="Ebene_1-2" data-name="Ebene 1"><g class="cls-2"><polyline class="cls-3" points="87.64 85.01 86.3 85.53 72.2 50.55 73.53 50.03 87.64 85.01"/></g><g class="cls-4"><polyline class="cls-5" points="99.19 110.07 95.35 111.57 85.05 86.02 88.89 84.52 99.19 110.07"/></g><g class="cls-2"><path class="cls-3" d="M54,7.5c-9.39,3.68-10.7,22.26-5.86,34.29S63.52,58,72.9,54.33,87,40.5,82.15,28.48,63.41,3.83,54,7.5M72.45,53.21C63.12,56.86,53.6,52,49.31,41.34,44.6,29.66,46.09,11.91,54.48,8.62S76.31,17.24,81,28.92C85.31,39.56,81.79,49.55,72.45,53.21Z" transform="translate(-0.04 -4.03)"/><path class="cls-3" d="M78.15,37.62l-1.92.75c-.56-1.42-1.13-2.83-1.7-4.24l2.08-.82c.34-.13,0-.23-.2-.15l-2,.77L72.74,29.7l2.12-.83c.33-.12-.13-.21-.29-.15l-1.92.75-1.71-4.22L73,24.43c.35-.13,0-.24-.19-.16l-2,.77L69.15,20.8l2-.77c.22-.08.37-.38,0-.25l-2.08.82-1.35-3.35c-.06-.15-.56.05-.5.19l1.35,3.35L65,22.2l-1.35-3.34c-.06-.15-.56,0-.51.17l1.36,3.36L60.89,23.8c-.45-1.12-.9-2.24-1.36-3.36-.05-.14-.55.07-.49.21L60.39,24l-3.6,1.41c-.44-1.1-.89-2.19-1.33-3.29-.06-.16-.58-.05-.53.06.46,1.14.92,2.28,1.37,3.42L52.7,27c-.44-1.11-.89-2.21-1.33-3.31-.07-.16-.58,0-.53.11l1.37,3.39-2,.78c-.21.08-.36.38,0,.24l2.08-.81L54,31.65l-2.08.81c-.35.14,0,.25.19.16l2-.77,1.71,4.23-2.13.83c-.33.13.14.21.29.15l1.93-.75c.57,1.41,1.14,2.82,1.7,4.23l-2.08.81c-.34.14,0,.24.2.16l2-.77L59.37,45l-2.13.84c-.33.13.15.19.3.13l1.92-.75c.45,1.1.89,2.2,1.33,3.31.07.15.58,0,.53-.12L60,45l3.6-1.41c.45,1.1.89,2.19,1.33,3.29.06.16.58.05.54-.06L64,43.39,67.64,42,69,45.34c.06.14.55-.06.5-.21l-1.35-3.34,3.59-1.41c.45,1.11.9,2.22,1.34,3.34.06.14.57,0,.52-.17-.46-1.12-.91-2.24-1.36-3.37l3.59-1.4,1.35,3.35c.06.14.56-.06.5-.2l-1.35-3.35,2.13-.83c.33-.13-.15-.19-.3-.13m-4.21-3.49-3.59,1.4c-.56-1.41-1.13-2.81-1.7-4.22l3.59-1.41C72.81,31.31,73.38,32.72,73.94,34.13ZM64,32.87l-3.6,1.41-1.71-4.23,3.6-1.4Zm-1.21-4.42L66.35,27l1.71,4.23-3.59,1.41Zm1.3,4.65,1.7,4.23-3.6,1.41c-.56-1.41-1.13-2.82-1.7-4.22Zm.5-.19,3.59-1.41c.57,1.41,1.14,2.82,1.7,4.23l-3.59,1.41Zm7.59-3.24-3.59,1.41-1.71-4.23,3.59-1.41ZM68.65,21l1.71,4.24-3.59,1.41-1.71-4.24Zm-4.09,1.6,1.71,4.24-3.59,1.41L61,24Zm-4.09,1.6,1.71,4.24-3.6,1.41-1.71-4.24C58.07,25.14,59.27,24.68,60.47,24.2Zm-7.68,3,3.6-1.41L58.1,30l-3.6,1.41C53.92,30,53.35,28.63,52.79,27.21Zm1.78,4.45,3.61-1.41c.57,1.4,1.13,2.81,1.7,4.22l-3.6,1.41Zm1.8,4.45L60,34.7c.56,1.41,1.13,2.82,1.7,4.23l-3.6,1.41Zm3.5,8.67-1.71-4.24,3.6-1.41,1.71,4.24ZM64,43.18c-.57-1.41-1.14-2.82-1.7-4.24l3.59-1.41,1.71,4.24Zm4.1-1.61-1.71-4.23,3.6-1.41c.57,1.41,1.13,2.82,1.7,4.24ZM72.14,40c-.57-1.41-1.13-2.82-1.7-4.24L74,34.33c.58,1.41,1.14,2.82,1.71,4.23Z" transform="translate(-0.04 -4.03)"/></g><g class="cls-2"><polyline class="cls-6" points="101.31 68.84 118.64 77.09 118.91 76.52 101.59 68.27 101.31 68.84"/></g><g class="cls-2"><polyline class="cls-7" points="50.43 54.68 11.12 62 14.04 66.79 48.1 69.99 55.96 76.9 38.93 88.75 31.5 87.68 27.14 92.91 28.45 98.1 64.08 88.88 69.21 64 50.43 54.68"/><polyline class="cls-8" points="31.5 87.68 27.71 68.08 48.1 69.99 55.96 76.9 38.93 88.75 31.5 87.68"/><polyline class="cls-9" points="55.96 76.9 38.93 88.75 28.45 98.1 40.06 95.09 57.96 78.41 55.96 76.9"/><polyline class="cls-10" points="68.88 63.83 35.8 66.29 49.85 54.79 42.68 56.13 22.98 67.63 48.1 69.99 48.5 70.34 68.46 67.63 69.21 64 68.88 63.83"/><polyline class="cls-11" points="31.07 82.56 30.12 77.97 34.42 69.59 38.71 70.34 31.07 82.56"/><path class="cls-11" d="M36.06,91.72l-3.94-.87V89.19l9.1-14.82,5.83.71L39.32,87.57a9.9,9.9,0,0,0-3.26,4.15" transform="translate(-0.04 -4.03)"/><polyline class="cls-12" points="89.48 103.59 83.1 99.84 100.65 69.78 107.04 73.53 89.48 103.59"/><path class="cls-3" d="M148.94,45.13c8.59-14.72,6.49-32-4.71-38.55S117,6.61,108.4,21.33c-5.84,10-6.72,21.25-3.18,29.45l0,.23c2,9-4.57,22.8-4.57,22.8l3.19,1.88c3.34-10.91,3.67-17.85,3.58-21a18.21,18.21,0,0,0,12.92,7.59c-2.78,1.45-8.65,5.14-16.5,13.4l3.19,1.87S116,65,124.8,62.36l.26-.06c8.87-.92,18-7.16,23.88-17.17M113.8,58.7c-10.53-6.18-12.42-22.63-4.22-36.67S133,1.58,143.54,7.76,156,30.39,147.76,44.44,124.32,64.88,113.8,58.7Z" transform="translate(-0.04 -4.03)"/><path class="cls-3" d="M134.91,49.15l-2.14-1.26,2.81-4.82,2.33,1.37c.38.22.24-.17,0-.31l-2.2-1.29L138.52,38l2.37,1.4c.37.21.11-.3-.06-.4l-2.16-1.26L141.48,33l2.33,1.36c.38.23.24-.16,0-.3l-2.2-1.29,2.82-4.82,2.2,1.29c.24.14.64.05.26-.17l-2.33-1.36c.74-1.27,1.49-2.54,2.23-3.82.09-.16-.47-.49-.56-.33-.74,1.27-1.48,2.55-2.23,3.82L140,25c.75-1.27,1.48-2.54,2.22-3.8.1-.17-.45-.52-.54-.37l-2.23,3.84-4-2.36c.74-1.27,1.49-2.54,2.23-3.82.09-.16-.47-.48-.57-.32L134.85,22l-4-2.36c.72-1.25,1.45-2.49,2.18-3.74.1-.18-.38-.59-.46-.47q-1.12,1.95-2.27,3.89l-4-2.36c.74-1.25,1.47-2.51,2.2-3.77.11-.17-.41-.56-.5-.41l-2.25,3.86-2.21-1.3c-.24-.14-.63-.06-.25.17l2.32,1.36q-1.4,2.41-2.81,4.83l-2.33-1.37c-.38-.23-.25.16,0,.3l2.21,1.3q-1.41,2.4-2.81,4.81l-2.38-1.4c-.36-.21-.1.29.07.39L119.66,27l-2.81,4.81-2.33-1.37c-.39-.22-.24.17,0,.31l2.2,1.29c-.94,1.61-1.88,3.21-2.81,4.82l-2.39-1.4c-.36-.21-.07.29.1.38l2.14,1.26-2.19,3.77c-.11.18.42.56.5.41l2.25-3.85,4,2.36c-.73,1.25-1.46,2.49-2.18,3.74-.11.18.38.59.45.46l2.27-3.88,4,2.36-2.22,3.82c-.1.15.47.48.56.31l2.22-3.8,4,2.35-2.21,3.8c-.1.16.45.51.53.36l2.24-3.83,4,2.36q-1.12,1.9-2.23,3.81c-.09.16.47.49.56.33q1.11-1.91,2.23-3.81l2.38,1.4c.36.21.07-.29-.1-.39m.24-6.63-4-2.36,2.81-4.81,4,2.35ZM129,32.07l-4-2.36,2.8-4.81,4,2.36Zm3.37-4.48,4,2.36c-.93,1.6-1.87,3.2-2.8,4.81l-4-2.36Zm-3.52,4.75L126,37.15q-2-1.18-4-2.36L124.78,30Zm.56.32,4,2.36-2.8,4.81-4-2.35Zm8.74,4.78-4-2.35,2.8-4.82,4,2.36Zm5.76-9.87-2.82,4.83L137,30l2.81-4.82Zm-4.58-2.68q-1.41,2.41-2.81,4.83l-4-2.36,2.81-4.82Zm-4.58-2.68L131.9,27l-4-2.36,2.82-4.82Zm-8.59-5,4,2.36-2.82,4.82-4-2.36Zm-3,5,4,2.36-2.81,4.81-4-2.36Zm-3,5.07,4,2.37-2.81,4.81q-2-1.19-4-2.36C118.34,30.5,119.28,28.9,120.21,27.29Zm-5.75,9.87,2.81-4.83,4,2.37q-1.41,2.4-2.81,4.82ZM119,39.83c.94-1.6,1.87-3.21,2.81-4.82l4,2.37q-1.41,2.4-2.81,4.82Zm4.59,2.7q1.39-2.41,2.81-4.83l4,2.36c-.93,1.61-1.87,3.21-2.81,4.82Zm4.57,2.68L131,40.39l4,2.35-2.81,4.82Z" transform="translate(-0.04 -4.03)"/></g><g class="cls-13"><path class="cls-14" d="M197.32,111.61a3.32,3.32,0,0,1-2.61,3.93,3.36,3.36,0,0,1-4-2.56,3.33,3.33,0,0,1,2.61-3.94,3.37,3.37,0,0,1,4,2.57" transform="translate(-0.04 -4.03)"/></g><g class="cls-15"><path class="cls-16" d="M4,110.25l-1.71.33a2.59,2.59,0,0,0-2.19,3,2.64,2.64,0,0,0,3.16,1.94L5,115.15l-1-4.9" transform="translate(-0.04 -4.03)"/></g><g class="cls-17"><polyline class="cls-18" points="3.94 106.21 15.06 100.88 14.76 102.97 15.73 104.26 15.34 106.56 16.48 108.03 15.85 109.85 17.19 111.57 4.91 111.12 3.94 106.21"/></g><g class="cls-19"><path class="cls-20" d="M135.47,110.64s11.19-29.42,40.28-12.07c0,0-12.73,28.16-40.28,12.07" transform="translate(-0.04 -4.03)"/></g><g class="cls-2"><path class="cls-9" d="M141.92,100.69a33.32,33.32,0,0,0-4,5.31,44.35,44.35,0,0,0,2.33,7,32.21,32.21,0,0,0,6.65,2.09,45.66,45.66,0,0,1-4.93-14.44" transform="translate(-0.04 -4.03)"/><path class="cls-9" d="M171,96.07a35.91,35.91,0,0,0-6-2.13,81.5,81.5,0,0,1,4.32,13.67,35.51,35.51,0,0,0,3.88-4.75A59.21,59.21,0,0,0,171,96.07" transform="translate(-0.04 -4.03)"/><path class="cls-9" d="M165.78,100.89l-1.29.39-.43-1.4a.29.29,0,0,0-.35-.18.27.27,0,0,0-.18.34l.43,1.39-1.16.35-.43-1.39a.28.28,0,0,0-.35-.18.27.27,0,0,0-.18.34l.43,1.39-1.16.35-.43-1.39a.28.28,0,1,0-.53.15l.43,1.4-1.16.34L159,101.4a.28.28,0,0,0-.53.16l.43,1.39-1.16.35-.43-1.39a.26.26,0,0,0-.34-.18.27.27,0,0,0-.19.34l.43,1.39-1.16.35-.43-1.4a.28.28,0,0,0-.53.16l.43,1.4-1.16.34-.43-1.39a.28.28,0,0,0-.53.16l.43,1.39-1.16.35-.43-1.39a.26.26,0,0,0-.34-.18.27.27,0,0,0-.19.34l.43,1.39-1.16.35-.43-1.4a.27.27,0,0,0-.34-.18.28.28,0,0,0-.19.34l.43,1.4-1.16.34-.42-1.39a.28.28,0,0,0-.35-.18.28.28,0,0,0-.19.34l.43,1.39-1.06.32a.28.28,0,0,0-.18.34.26.26,0,0,0,.34.18l1.07-.32.46,1.52a.29.29,0,0,0,.35.18.27.27,0,0,0,.18-.34l-.46-1.51,1.15-.35.47,1.51a.27.27,0,0,0,.35.18.27.27,0,0,0,.18-.34l-.47-1.51,1.16-.35.47,1.51a.28.28,0,1,0,.53-.15l-.47-1.52L154,105l.47,1.51a.29.29,0,0,0,.35.18.27.27,0,0,0,.18-.34l-.47-1.51,1.16-.35.47,1.51a.27.27,0,0,0,.35.18.27.27,0,0,0,.18-.34l-.47-1.51,1.16-.35.47,1.51a.28.28,0,0,0,.34.19.28.28,0,0,0,.19-.34l-.47-1.52,1.16-.34.47,1.51a.28.28,0,0,0,.34.18.27.27,0,0,0,.19-.34l-.47-1.51,1.16-.35.47,1.51a.26.26,0,0,0,.34.18.27.27,0,0,0,.19-.34l-.47-1.51,1.16-.35.47,1.52a.28.28,0,0,0,.53-.16L163,102.3l1.16-.34.47,1.51a.28.28,0,0,0,.53-.16l-.47-1.51,1.29-.39a.28.28,0,0,0,.19-.34.28.28,0,0,0-.35-.18" transform="translate(-0.04 -4.03)"/></g><g class="cls-2"><path class="cls-21" d="M20.23,107a6.56,6.56,0,0,0,7.44.53c1.81-1.22,2.61-3.44,3.44-5.36,1.06-2.45,1.64-5.69-.89-7.44-.14-.1,0-.6.21-.48,4,2.74.91,9.36-1.31,12.34s-6.24,3-9.09.89c-.15-.1,0-.6.2-.48" transform="translate(-0.04 -4.03)"/><path class="cls-21" d="M41.81,101.13c-.28,2.32-.71,5.62-2.59,7.26-.17.15-.13-.37,0-.48,1.69-1.47,2.06-4.62,2.31-6.71,0-.26.33-.43.29-.07" transform="translate(-0.04 -4.03)"/><path class="cls-22" d="M49.57,106.87,42,104.68l-1.83,3.75,7.19,3.86s2.48-3.45,2.18-5.42" transform="translate(-0.04 -4.03)"/></g><g class="cls-2"><path class="cls-21" d="M44.84,88.35a6.37,6.37,0,0,1,4.55,5.81c0,2.16-1.45,4-2.61,5.79-1.48,2.23-3.9,4.5-6.78,3.39-.17-.06-.49.36-.29.44,4.51,1.73,8.41-4.44,9.7-7.91s-.93-6.77-4.28-8c-.17-.06-.49.37-.29.44" transform="translate(-0.04 -4.03)"/><path class="cls-21" d="M51.79,109.33c1.81-1.52,4.37-3.7,4.71-6.15,0-.22-.39.1-.41.26-.31,2.2-2.77,4.24-4.4,5.61-.19.17-.17.51.1.28" transform="translate(-0.04 -4.03)"/><path class="cls-22" d="M61,112.51l-6-5L57.07,104l7.24,3.75s-1.54,4-3.36,4.79" transform="translate(-0.04 -4.03)"/></g><g class="cls-23"><path class="cls-24" d="M153.69,91.46a24.5,24.5,0,1,0-24.5,24.15,24.33,24.33,0,0,0,24.5-24.15" transform="translate(-0.04 -4.03)"/></g><g class="cls-25"><path class="cls-26" d="M133.23,68.74a9.68,9.68,0,0,0-4.29-.78c0-.22.09-.43.13-.64q-.63,0-1.26,0c0,.25-.1.5-.14.75a13,13,0,0,0-7.11,4.34c-12.27,15.9-7.57,32.18-4.33,39.5.59.37,1.2.71,1.84,1-3-6.07-9.36-23.15,3.48-39.78a11.39,11.39,0,0,1,5.91-3.82c-2.21,15.1,2.52,44.12,2.86,46.21l.71,0,.53-.08c-.06-.37-5.17-31.32-2.84-46.27a8.74,8.74,0,0,1,4,.68c6.14,2.56,16.14,21,11.21,40.86q.82-.61,1.59-1.29c4.31-20.18-5.86-38-12.32-40.69" transform="translate(-0.04 -4.03)"/></g><g class="cls-2"><path class="cls-27" d="M140.81,79.7a19.66,19.66,0,0,0-6.66-2.17c-.94-.09-1.88-.13-2.79-.13-1.1,0-2.18.06-3.24.16a61,61,0,0,1,.6-8.38c.21,0,.41,0,.62,0a8.85,8.85,0,0,1,3.41.7c2.47,1,5.57,4.62,8.06,9.84m-23.59.48a38.28,38.28,0,0,1,4.33-7,11.39,11.39,0,0,1,5.91-3.82,63.22,63.22,0,0,0-.58,8.34,46.89,46.89,0,0,0-9.66,2.47m-8.49,3c-.69,0-.92-.42-.6-1.48,0,0,5.21-9.39,15.78-12.14a13.59,13.59,0,0,0-3.35,2.86,39.57,39.57,0,0,0-5,8.36c-3.28,1.27-5.69,2.4-6.84,2.4m41.6,2.25c-.49,0-3.72-2.54-7.65-4.75-2.49-5.72-5.77-9.85-8.55-11.51,14.55,2.39,15.86,14.94,16.26,16.14,0,.08,0,.12-.06.12" transform="translate(-0.04 -4.03)"/><path class="cls-28" d="M115.57,80.8a39.57,39.57,0,0,1,5-8.36,13.59,13.59,0,0,1,3.35-2.86,23,23,0,0,1,5.9-.75,24.51,24.51,0,0,1,2.53.13c.62.06,1.21.14,1.79.23,2.78,1.66,6.06,5.79,8.55,11.51-.61-.34-1.23-.68-1.87-1-2.49-5.22-5.59-8.81-8.06-9.84a8.85,8.85,0,0,0-3.41-.7c-.21,0-.41,0-.62,0a61,61,0,0,0-.6,8.38c-.42,0-.83.09-1.24.15a63.22,63.22,0,0,1,.58-8.34,11.39,11.39,0,0,0-5.91,3.82,38.28,38.28,0,0,0-4.33,7l-.34.12-1.31.5" transform="translate(-0.04 -4.03)"/></g><g class="cls-29"><path class="cls-30" d="M91.26,98.71a17.14,17.14,0,1,0-17.14,16.9,17,17,0,0,0,17.14-16.9" transform="translate(-0.04 -4.03)"/></g><g class="cls-2"><path class="cls-31" d="M86.65,87.19a17.19,17.19,0,0,0-12.53-5.38,17.56,17.56,0,0,0-4.74.66c2.44,2.52,7.71,6.09,17.27,4.72" transform="translate(-0.04 -4.03)"/></g><g class="cls-32"><path class="cls-31" d="M65.27,113.19a17.34,17.34,0,0,0,8.85,2.42,17.15,17.15,0,0,0,15.78-10.3s-9.77.56-14.86,4a22.53,22.53,0,0,1-9.77,3.83" transform="translate(-0.04 -4.03)"/></g><g class="cls-2"><path class="cls-33" d="M72,101.74c10.55,0,15.5.52,17.91,3.57a16.34,16.34,0,0,0,1.23-4.57c-3.11-4.95-8.67-8.65-18.51-6.85-6.67,1.23-11.26-.48-14.05-2.28h0c0,.2-.29,10.13,13.43,10.13" transform="translate(-0.04 -4.03)"/><path class="cls-34" d="M89.39,94.91c-.59,0-6.7-5.14-11.38-5.57-.66-.06-1.31-.09-2-.09a29.64,29.64,0,0,0-10.17,2C64,92,62.44,92.67,61.36,93a16.54,16.54,0,0,1-1.63-.75h0s3.65-6.6,11.06-8.54a18.41,18.41,0,0,0,11.77,3.74,28.09,28.09,0,0,0,3.21-.19,14.89,14.89,0,0,1,3.66,7.52c0,.06,0,.09,0,.09" transform="translate(-0.04 -4.03)"/><path class="cls-35" d="M82.56,87.49a18.41,18.41,0,0,1-11.77-3.74A16.72,16.72,0,0,1,75,83.22q.87,0,1.77.09a14,14,0,0,1,9,4,28.09,28.09,0,0,1-3.21.19" transform="translate(-0.04 -4.03)"/><path class="cls-36" d="M60.15,93.32c-.48,0-.65-.29-.42-1a16.54,16.54,0,0,0,1.63.75,4,4,0,0,1-1.21.28" transform="translate(-0.04 -4.03)"/></g><g class="cls-37"><path class="cls-38" d="M179.21,108.64a7.07,7.07,0,1,1-7.06-7,7,7,0,0,1,7.06,7" transform="translate(-0.04 -4.03)"/></g><g class="cls-39"><path class="cls-40" d="M172.61,112.85a7.88,7.88,0,0,1-7.48-5,7.16,7.16,0,0,0,0,.8,7.07,7.07,0,0,0,14,1,8,8,0,0,1-6.52,3.23" transform="translate(-0.04 -4.03)"/></g></g></g></svg>