<svg xmlns="http://www.w3.org/2000/svg" xmlns:xlink="http://www.w3.org/1999/xlink" viewBox="0 0 87.06 99.89"><defs><style>.cls-1{fill:none;}.cls-2{clip-path:url(#clip-path);}.cls-3{fill:#2c5189;}.cls-4{fill:#234774;}.cls-5{fill:#d1e4f1;}.cls-6{fill:#172f4c;}.cls-7{fill:#ee9255;}.cls-8{fill:#f9b57c;}.cls-9{fill:#fff;}.cls-10{fill:#335c92;}.cls-11{fill:#462516;}</style><clipPath id="clip-path" transform="translate(-0.01 -0.54)"><rect class="cls-1" width="87.07" height="100.58"/></clipPath></defs><g id="Ebene_2" data-name="Ebene 2"><g id="Ebene_1-2" data-name="Ebene 1"><g class="cls-2"><path class="cls-3" d="M83.15,66.84a8,8,0,0,0-3.73-3.72L55.53,57.34l-12,4.06-12-4.06L7.66,63.12a8,8,0,0,0-3.73,3.72C3,69.26,0,100.44,0,100.44H87.07s-3-31.18-3.92-33.6" transform="translate(-0.01 -0.54)"/><path class="cls-4" d="M87.07,100.44S85.49,84,84.27,74C61.57,95.74,5.79,96.05.42,96.17L0,100.44H87.07" transform="translate(-0.01 -0.54)"/><polyline class="cls-5" points="26.59 58 43.53 91.43 58.85 57.6 43.64 60.9 26.59 58"/><polyline class="cls-6" points="47.53 60.9 43.78 60.81 40.04 60.9 39.71 66.31 42.23 68.81 45.34 68.81 47.86 66.31 47.53 60.9"/><path class="cls-7" d="M43.65,60.32l10.62-3.16c-1.66-2.89-2.78-16.48-2.78-16.48l-7.84,2.89-7.84-2.89S34.7,54.27,33,57.16l10.62,3.16" transform="translate(-0.01 -0.54)"/><path class="cls-8" d="M43.66,6.59c-14.17-.07-16.95,12.22-16,21.16a151.59,151.59,0,0,0,2.59,15.08c.67,2.86,4.82,6.4,8.77,8.74a16.16,16.16,0,0,0,4.66,1.9,15.92,15.92,0,0,0,4.67-1.9c4-2.34,8.1-5.88,8.77-8.74a151.59,151.59,0,0,0,2.59-15.08c.93-8.94-2.77-20.42-16-21.16" transform="translate(-0.01 -0.54)"/><path class="cls-8" d="M28.55,27.19s-4.1-3.91-5.22-.19c-.92,3.07,2.87,11.94,5.54,9l-.32-8.86" transform="translate(-0.01 -0.54)"/><path class="cls-8" d="M58.68,27.19s4.1-3.91,5.22-.19c.92,3.07-2.87,11.94-5.54,9l.32-8.86" transform="translate(-0.01 -0.54)"/><path class="cls-9" d="M43.65,60.32s-9-4.19-9.89-5.16a2.57,2.57,0,0,0-2.5.51c-.93,1-4.67,2.87-4.67,2.87L35,75.06s4.41-8.13,8.68-13V60.32" transform="translate(-0.01 -0.54)"/><path class="cls-9" d="M43.65,60.32s9-4.19,9.9-5.16a2.57,2.57,0,0,1,2.5.51,29,29,0,0,0,2.81,2.48L51.5,74.39s-3.57-7.46-7.85-12.3V60.32" transform="translate(-0.01 -0.54)"/><polyline class="cls-6" points="42.23 68.81 39.71 83.89 43.53 91.43 47.25 83.2 45.34 68.81 42.23 68.81"/><polyline class="cls-10" points="23.38 58.77 20.09 70.21 25.68 72.44 20.09 76.78 39.12 99.89 43.41 99.89 43.53 91.43 26.59 58 23.38 58.77"/><polyline class="cls-10" points="62.05 58.38 67.23 70.21 61.63 72.44 67.23 76.78 47.77 99.89 43.41 99.89 43.53 91.43 58.85 57.6 62.05 58.38"/><path class="cls-11" d="M26.59,25.81,27.93,30s1.62-4.08,2.62-5.82S32,18,32,16.76a4.35,4.35,0,0,1,1.87-3.34c.87-.38,8.83,2.48,11.45,1.86a60.74,60.74,0,0,1,9.82-1c.38.13.75,1.86,1,3s-1,5.46,0,7A63.28,63.28,0,0,1,59.26,31s3.39-14.87,1.35-20.32S49.58,1,44.41.57,29.24,4.36,26.59,11.18s0,14.63,0,14.63" transform="translate(-0.01 -0.54)"/></g></g></g></svg>