<?xml version="1.0" encoding="utf-8"?>
<!-- Generator: Adobe Illustrator 25.4.1, SVG Export Plug-In . SVG Version: 6.00 Build 0)  -->
<svg version="1.1" id="Layer_1" xmlns="http://www.w3.org/2000/svg" xmlns:xlink="http://www.w3.org/1999/xlink" x="0px" y="0px"
	 viewBox="0 0 584.4 178.4" style="enable-background:new 0 0 584.4 178.4;" xml:space="preserve">
<g>
	<path d="M352,92.8c0.3,2.4,0.4,5.6,0.4,9.6c0,17.6-3.1,28-9.2,31.2c-6.1,3.2-12.1,6.3-18,9.2c-6.4,3.5-12.8,8.3-19.2,14.4
		c-13.3,13.3-23.6,20-30.8,20c-3.7,0-6.7-1.6-8.8-4.8c-2.1-3.2-3.2-7.1-3.2-11.6c0-6.9,1.9-15.2,5.6-24.8c2.9-6.9,6.1-12.9,9.6-18
		c-8.3,4.3-18.7,11.5-31.2,21.6c-16.3,13.9-26,21.9-29.2,24c-10.4,7.5-19.3,11.2-26.8,11.2c-5.6,0-9.9-2.2-13-6.6
		c-3.1-4.4-4.6-9.7-4.6-15.8c0-6.4,1.6-12.9,4.8-19.6c-4.5,2.7-8.9,5.2-13.2,7.6c-7.2,4.3-13.6,8.7-19.2,13.2
		c-5.9,5.1-11.9,10.1-18,15.2c-7.2,5.9-12.9,8.8-17.2,8.8c-3.7,0-6.9-1.5-9.6-4.4c-2.9-3.5-4.4-8-4.4-13.6c0-9.1,3.3-20.3,10-33.6
		c3.5-6.4,7.1-12.8,10.8-19.2c-4.8,2.7-9.1,4-12.8,4c-4,0-7.4-2.1-10.2-6.4c-2.8-4.3-5.3-6.4-7.4-6.4c-2.4,0-4.9,1.5-7.4,4.4
		c-2.5,2.9-3.8,5.2-3.8,6.8c0,3.5,2.7,7.1,8,10.8c4.5,2.9,9.1,5.9,13.6,8.8c0,2.9-0.7,6.8-2,11.6c-2.4-1.1-4.8-2.4-7.2-4
		c-4.3-1.9-7.7-2.8-10.4-2.8c-7.5,0-15.5,3.1-24,9.2c-6.9,5.9-13.9,11.7-20.8,17.6c-7.7,6.1-14.5,9.2-20.4,9.2c-3.5,0-6.5-1.3-9-4
		c-2.5-2.7-3.8-6.7-3.8-12c0-5.9,2.1-12.3,6.4-19.2c1.1-1.3,4.8-6,11.2-14l1.2,1.2c-9.3,11.5-14,20.3-14,26.4
		c0,6.9,2.9,10.4,8.8,10.4c5.9,0,15.2-5.7,28-17.2c12-10.4,22.8-16,32.4-16.8c-1.1-4.8-1.6-8.8-1.6-12c0-5.3,1.2-11.1,3.6-17.2
		C78.9,87.7,82.7,84,87.2,84c2.1,0,4.8,2.7,8,8c3.2,5.3,6.5,8,10,8c3.2,0,8.8-1.6,16.8-4.8c4.5-1.9,9.2-3.9,14-6L124.8,86
		c-5.1-1.6-8.7-2.4-10.8-2.4c-1.3,0-2.4,0.4-3.2,1.2h-16v-1.6c0-3.7,1.6-6.8,4.8-9.2c2.4-2.1,5.3-3.2,8.8-3.2
		c4.3,0,9.3,1.2,15.2,3.6c8.8,2.9,14.4,4.8,16.8,5.6c10.9,2.7,22.4,4,34.4,4c0,0.5-0.8,2.5-2.4,6c-1.6,3.5-2.7,5.2-3.2,5.2
		c-5.6-1.1-10.8-1.6-15.6-1.6c-3.7,0-9.2,1.4-16.4,4.2c-7.2,2.8-12.4,5.4-15.6,7.8c-2.1,2.1-5.7,8.4-10.8,18.8
		c-6.4,13.3-9.6,24.1-9.6,32.4c0,2.9,0.9,5.3,2.8,7c1.9,1.7,4.1,2.6,6.8,2.6c2.9,0,7.7-2.8,14.4-8.4c4.8-4.3,9.6-8.5,14.4-12.8
		c5.9-4.3,15.3-10.3,28.4-18c8.8-5.1,13.7-8.9,14.8-11.6c-0.3-3.5-0.7-7.2-1.2-11.2l-12.8-81.6c-0.3-1.1-0.8-2.6-1.6-4.6
		s-1.2-3.5-1.2-4.6L169.6,0L182,24.8v4l-6-5.6l10.8,69.6c0.5,3.2,0.8,6.9,0.8,11.2c0,12-1.9,20.7-5.6,26c-3.7,5.3-5.6,11.3-5.6,18
		c0,4.3,1.3,7.9,3.8,11c2.5,3.1,5.8,4.6,9.8,4.6c8,0,21.3-7.9,40-23.6c21.6-18.1,36.8-28.9,45.6-32.4c-0.5-0.5-4.4-3.5-11.6-8.8
		c-5.3-3.7-8-7.7-8-12c0-5.6,1.9-9.5,5.6-11.6c2.7-1.3,6.9-2,12.8-2c4.8,0,14.4,1.3,28.8,4c16.3,3.2,27.1,4.9,32.4,5.2
		c0,0.8-0.6,2.8-1.8,6c-1.2,3.2-2.1,4.9-2.6,5.2c-11.7,4.5-24.7,10.1-38.8,16.8c2.7,4,4,7.7,4,11.2c0,1.3-0.4,3-1.2,5s-1.6,3-2.4,3
		c-0.5,0-2.3-1.3-5.4-3.8c-3.1-2.5-5.4-4.7-7-6.6c-1.9,1.9-4.3,6.3-7.2,13.2c-3.5,8.5-5.2,16.4-5.2,23.6c0,6.4,2.9,9.6,8.8,9.6
		c4.5,0,12.9-6.1,25.2-18.4c5.6-5.6,15.2-11.9,28.8-18.8c10.9-5.1,16.7-9.3,17.2-12.8c-0.3-3.5-0.8-7.2-1.6-11.2L334,22.8
		c-0.3-1.1-0.8-2.6-1.6-4.6c-0.8-2-1.2-3.5-1.2-4.6L334.4,0l12.8,24.8v4l-6-5.6L352,92.8z M28.8,88c-6.7,7.2-10,13.1-10,17.6
		c0,3.5,1.1,5.2,3.2,5.2c0.5,0,1.1-0.2,1.6-0.6c0.5-0.4,0.9-0.7,1.2-1l0.8,0.8c-2.7,6.9-5.3,10.4-8,10.4c-3.2,0-4.8-2-4.8-6
		c0-4.8,1.8-10.1,5.4-15.8c3.6-5.7,7-9.4,10.2-11L28.8,88z M65.6,110.4c0,3.2-0.7,4.8-2,4.8c-1.9,0-4.3-1.2-7.2-3.6
		c-1.3,3.2-3.6,6.9-6.8,11.2c-7.7,9.9-19.5,15.9-35.2,18V140c13.1-4.8,24-11.6,32.8-20.4c2.9-2.9,6-6.8,9.2-11.6
		c2.1-3.7,3.6-5.6,4.4-5.6c1.3,0,2.5,1.2,3.6,3.6C65.2,108.1,65.6,109.6,65.6,110.4z M66.4,64.8c0,2.1-0.8,4.3-2.4,6.4
		c-1.1-1.6-2.1-2.4-3.2-2.4c-2.1,0-3.7,2.9-4.8,8.8c-0.8,4.3-1.6,8.4-2.4,12.4c-0.8-2.9-2.8-7.3-6-13.2c-0.5,2.4-1.7,3.6-3.6,3.6
		c-1.3,0-2.6-0.6-3.8-1.8c-1.2-1.2-1.8-2.6-1.8-4.2c0-4.3,1.6-6.4,4.8-6.4c3.7,0,7.1,4.3,10,12.8c2.4-14.9,5.7-22.4,10-22.4
		C65.3,58.4,66.4,60.5,66.4,64.8z M84,152.8c0,0.8-0.5,2.7-1.4,5.6c-0.9,2.9-1.8,4.8-2.6,5.6c-4.5-2.4-8.3-4.1-11.2-5.2
		c-1.1,4-2.3,6.9-3.6,8.8c-5.6-3.2-9.6-5.1-12-5.6c1.3-3.2,2.7-6.9,4-11.2c4.3,1.1,8.3,2.8,12,5.2c1.1-2.7,2.1-5.6,3.2-8.8
		C77.2,148.5,81.1,150.4,84,152.8z M64,110.8c-0.8-1.6-1.9-2.8-3.2-3.6c-0.8,0-1.5,0.4-2,1.2C59.9,109.5,61.6,110.3,64,110.8z
		 M95.6,33.6c-0.8,2.1-2.9,5.2-6.4,9.2c-0.8,0.8-3.2,2.1-7.2,3.8c-4,1.7-7.1,2.6-9.2,2.6c-1.1,0-2.3-0.4-3.6-1.2
		c8-2.4,13.3-4.9,16-7.6c-2.7-1.1-5.6-1.6-8.8-1.6c-0.5,0-1.1,0.1-1.6,0.4c-0.5,0.3-1.1,0.4-1.6,0.4c0-7.5,3.5-10.7,10.4-9.6
		C87.3,30.3,91.3,31.5,95.6,33.6z M157.6,23.6l-1.2,5.2c-26.4,5.1-48,16.4-64.8,34l0.4-6.4C109.6,38.5,131.5,27.6,157.6,23.6z
		 M150.8,122.4c-0.8,3.2-2.5,6.1-5.2,8.8c-2.7,2.7-5.5,4-8.4,4c-5.3,0-8-2.5-8-7.6c0-2.1,2.5-6.4,7.6-12.8c-0.8,0-1.6,0-2.4,0
		c-2.7,0-5.1,0.9-7.2,2.8l1.6-4.8c2.7-2.4,5.1-3.6,7.2-3.6c2.7,0,5.2,0.3,7.6,0.8l-2.4,4.8c-1.6,1.1-3.5,2.7-5.6,5
		c-2.1,2.3-3.2,4.2-3.2,5.8c0,2.1,2,3.2,6,3.2C143.2,128.8,147.3,126.7,150.8,122.4z M154,52.8c0,5.6-2,8.4-6,8.4
		c-1.9,0-3.7-0.9-5.6-2.8c-1.3,3.7-3.6,5.6-6.8,5.6c-2.7,0-4.3-2-4.8-6c-0.3-3.2-0.4-6.4-0.4-9.6c-0.8,1.3-1.6,2.9-2.4,4.8v-2.8
		c0.5-1.6,1.2-3.1,2-4.4c1.1-2.1,2.5-3.7,4.4-4.8c-1.3,10.1-0.4,15.2,2.8,15.2c2.4,0,3.6-1.7,3.6-5.2c0-1.3-0.5-4.3-1.6-8.8l2.4-4
		c1.3,2.1,2.3,5.5,2.8,10c0.3,3.5,1.5,5.2,3.6,5.2c1.6,0,2.4-1.1,2.4-3.2l-2-9.2l2.4-5.2C152.9,42.4,154,48,154,52.8z M171.2,143.2
		c-6.9,7.2-10.4,13.2-10.4,18c0,3.2,1.1,4.8,3.2,4.8c0.5,0,1.1-0.2,1.6-0.6c0.5-0.4,0.9-0.6,1.2-0.6l0.8,0.4
		c-2.7,7.2-5.3,10.8-8,10.8c-3.2,0-4.8-2.1-4.8-6.4c0-4.5,1.8-9.7,5.4-15.6c3.6-5.9,7.1-9.6,10.6-11.2L171.2,143.2z M202.4,115.2
		c-6.9,6.9-10.4,12.8-10.4,17.6c0,3.2,1.1,4.8,3.2,4.8c0.8,0,1.4-0.2,1.8-0.6s0.7-0.6,1-0.6l0.8,0.8c-2.7,6.9-5.3,10.4-8,10.4
		c-3.2,0-4.8-2.1-4.8-6.4c0-4.5,1.8-9.7,5.4-15.6c3.6-5.9,7.1-9.6,10.6-11.2L202.4,115.2z M215.2,113.2c0,5.6-1.3,11.5-4,17.6h-2
		c0.5-7.2,0-16-1.6-26.4l-12.8-81.6c-0.3-1.1-0.8-2.6-1.6-4.6s-1.2-3.5-1.2-4.6L195.6,0L208,24.8v4l-6-5.6l12.8,80.8
		C215.1,105.9,215.2,108.9,215.2,113.2z M247.2,71.2c0,2.9-0.9,5.7-2.6,8.4c-1.7,2.7-3.9,4-6.6,4c-4.3,0-6.4-2.4-6.4-7.2
		c0-1.1,0.9-4.3,2.6-9.8c1.7-5.5,2.6-10.1,2.6-13.8c0-6.7-2.7-12-8-16c0-0.3-0.4-4.3-1.2-12c3.7,2.4,6.8,5.9,9.2,10.4
		c2.4,4.5,3.6,8.8,3.6,12.8c0,4.5-0.5,8.3-1.6,11.2C244.4,61.1,247.2,65.1,247.2,71.2z M243.6,103.2c0,0.8-0.5,2.6-1.6,5.4
		c-1.1,2.8-1.9,4.7-2.4,5.8c-5.9-3.2-9.9-5.1-12-5.6c1.1-3.5,2.4-7.2,4-11.2C236.4,98.9,240.4,100.8,243.6,103.2z M245.6,72.4
		c-1.6-2.9-4.4-5.1-8.4-6.4c-1.9,2.1-2.8,4.3-2.8,6.4c0,2.9,1.3,4.4,4,4.4C240.8,76.8,243.2,75.3,245.6,72.4z M259.6,140.4
		c-6.9,7.2-10.4,13.1-10.4,17.6c0,3.5,1.2,5.2,3.6,5.2c0.3,0,0.7-0.2,1.4-0.6c0.7-0.4,1-0.7,1-1l0.8,0.8c-2.4,7.2-5.1,10.8-8,10.8
		c-3.2,0-4.8-2.1-4.8-6.4c0-4.5,1.9-9.9,5.6-16c3.7-5.6,7.2-9.3,10.4-11.2L259.6,140.4z M327.6,18.8l-4.4,7.2
		c-13.1,2.7-25.9,7.2-38.6,13.6C271.9,46,261.5,53.5,253.2,62l3.6-8.8c8-8,18.7-15.3,32-22C302.1,24.5,315.1,20.4,327.6,18.8z
		 M282.8,12c-0.8,2.1-2.9,5.1-6.4,8.8c-0.8,0.8-3.2,2-7.2,3.6s-7.1,2.4-9.2,2.4c-0.8,0-1.9-0.3-3.2-0.8c7.7-2.4,12.9-4.9,15.6-7.6
		c-2.7-0.8-5.6-1.2-8.8-1.2c-0.3,0-0.7,0.1-1.4,0.2c-0.7,0.1-1.1,0.2-1.4,0.2c0-7.2,3.3-10.4,10-9.6C274.5,8.5,278.5,9.9,282.8,12z
		 M312.8,90.8c-16.3-3.7-29.6-5.6-40-5.6c-5.3,0-9.5,0.4-12.4,1.2c7.2,4.3,12.3,7.5,15.2,9.6c1.9,1.9,4.5,4.3,8,7.2L312.8,90.8z
		 M318,56.4c0,5.6-2,8.4-6,8.4c-1.6,0-3.5-1.1-5.6-3.2c-1.1,3.7-3.2,5.6-6.4,5.6c-2.9,0-4.7-2-5.2-6c0-2.9,0-6,0-9.2
		c-0.8,1.3-1.7,2.9-2.8,4.8V54c0.5-1.6,1.2-3.1,2-4.4c1.3-2.1,2.8-3.7,4.4-4.8c-1.1,9.9,0,14.8,3.2,14.8c2.4,0,3.6-1.6,3.6-4.8
		c0-1.6-0.5-4.5-1.6-8.8l2.4-4c1.3,1.9,2.3,5.2,2.8,10c0,3.5,1.2,5.2,3.6,5.2c1.6,0,2.4-1.1,2.4-3.2c0-0.3-0.8-3.3-2.4-9.2l2.8-5.2
		C317.1,46,318,51.6,318,56.4z M326.4,121.6c-0.8,3.2-2.5,6.1-5.2,8.6c-2.7,2.5-5.5,3.8-8.4,3.8c-5.1,0-7.6-2.4-7.6-7.2
		c0-2.4,2.4-6.7,7.2-12.8c-0.8,0-1.6,0-2.4,0c-2.9,0-5.3,0.8-7.2,2.4l1.6-4.4c2.7-2.7,5.1-4,7.2-4c2.7,0,5.3,0.4,8,1.2l-2.8,4.8
		c-1.6,0.8-3.5,2.4-5.6,4.8c-2.1,2.4-3.2,4.4-3.2,6c0,2.1,2,3.2,6,3.2C318.8,128,322.9,125.9,326.4,121.6z M359.6,140
		c-6.7,6.9-10,12.8-10,17.6c0,3.5,1.2,5.2,3.6,5.2c0.3,0,1.1-0.5,2.4-1.6l0.8,0.4c-2.7,7.2-5.3,10.8-8,10.8c-3.2,0-4.8-2.1-4.8-6.4
		c0-4.5,1.9-9.7,5.6-15.6c3.7-5.9,7.2-9.6,10.4-11.2V140z M378.4,113.2c0,5.6-1.3,11.5-4,17.6h-1.6c0.3-7.2-0.5-16-2.4-26.4
		L358,22.8c-0.3-1.1-0.8-2.6-1.6-4.6c-0.8-2-1.2-3.5-1.2-4.6L358.8,0l12.4,24.8v4l-5.6-5.6l12,80.8
		C378.1,105.9,378.4,108.9,378.4,113.2z M580.4,100.4c0,4.5-0.8,8.7-2.4,12.4c-2.4,4.8-5.5,7.2-9.2,7.2c-1.9,0-4.2-0.9-7-2.6
		c-2.8-1.7-4.6-3.5-5.4-5.4c-0.5,1.3-1.6,3.1-3.2,5.2c-2.7,2.9-5.7,4.4-9.2,4.4c-2.7,0-4.4-0.7-5.2-2c-1.1-2.1-2.3-4-3.6-5.6
		c-5.9,5.9-10.8,8.8-14.8,8.8c-4.3,0-7.6-1.5-10-4.4c-1.1-0.8-2.5-3.2-4.4-7.2c-1.1-2.7-2.5-4-4.4-4c-2.7,0-4.9,1.7-6.8,5.2
		c-1.6,2.7-2.4,4.7-2.4,6c0,4.8,6.9,10.7,20.8,17.6c0.5,0.3,0.5,2.3,0,6c-0.8,3.5-1.5,5.3-2,5.6c-2.7-1.1-5.2-2.1-7.6-3.2
		c-2.9-1.3-5.5-2-7.6-2c-7.5,0-15.6,2.9-24.4,8.8c-6.9,5.3-14,10.8-21.2,16.4c-7.7,5.9-14.1,8.8-19.2,8.8c-3.2,0-6.3-1.6-9.2-4.8
		c-3.5-3.5-5.2-7.6-5.2-12.4c0-8.8,4.5-18.3,13.6-28.4c0-0.3-0.5-1.1-1.6-2.4c-1.1-1.3-1.6-2.7-1.6-4h-0.8
		c-2.4,7.2-4.7,12.1-6.8,14.8c-2.9,3.5-6.8,5.2-11.6,5.2c-11.2,0-16.8-9.1-16.8-27.2c0-2.9,0.1-6.4,0.4-10.4l0.4-4.8
		c-1.9,2.7-3.2,7.5-4,14.4c-0.5,5.6-1.2,11.1-2,16.4c-1.6,9.1-4.4,13.6-8.4,13.6c-5.3,0-9.5-4.7-12.4-14c-2.1-6.9-3.2-13.5-3.2-19.6
		c0-5.6,0.4-9.2,1.2-10.8c0,0.3,0.3,0.8,0.8,1.6c-0.3,4.8,0.3,10.7,1.6,17.6c1.9,10.4,5.1,15.6,9.6,15.6c2.1,0,4-1.7,5.6-5.2
		c1.1-2.9,1.6-5.6,1.6-8c0.5-3.7,1.2-9.1,2-16c0.3-2.9,1.6-7,4-12.2c2.4-5.2,4.7-8.9,6.8-11c1.1,0,2,1.1,2.8,3.4
		c0.8,2.3,1.2,4.1,1.2,5.4c-2.4,10.7-3.6,18.4-3.6,23.2c0,3.7,0.8,7.2,2.4,10.4c2.1,4,5.2,6,9.2,6c4.5,0,8.5-1.5,11.8-4.6
		c3.3-3.1,5-6.7,5-11c0-3.7-1.3-9.6-3.8-17.6c-2.5-8-3.8-12.8-3.8-14.4c0,0.3,0.7-2.5,2-8.4c0.3,0,0.9,0.1,2,0.4
		c4,5.3,7.7,17.9,11.2,37.6c0.8,3.2,2.7,6,5.6,8.4c2.9,2.4,5.9,3.6,8.8,3.6c3.5,0,6.1-1.1,8-3.2c-1.3-4.8-4.4-13.3-9.2-25.6
		c-4.3-11.5-6.4-17.3-6.4-17.6c0-0.3,0.7-3.5,2-9.6c1.3,1.3,5.3,5.9,12,13.6v2c-0.8,0-2.5-0.7-5.2-2c7.7,18.1,11.6,29.5,11.6,34
		c0,4.8-1.1,9.1-3.2,12.8c-2.4,4.5-6,6.8-10.8,6.8c-5.1,0-9.1-1.7-12-5.2c-2.7,2.4-5.2,5.9-7.6,10.4c-3.5,5.6-5.2,10.3-5.2,14
		c0,2.4,0.7,4.7,2.2,6.8c1.5,2.1,3.7,3.2,6.6,3.2c3.7,0,11.2-4.3,22.4-12.8c14.9-10.9,22.8-16.7,23.6-17.2c2.7-1.3,4.8-2.4,6.4-3.2
		c2.7-1.1,5.3-1.6,8-1.6c0-1.3-0.2-3.4-0.6-6.2c-0.4-2.8-0.6-4.3-0.6-4.6c0-4.8,1.6-10.1,4.8-16c3.5-6.4,7.2-9.6,11.2-9.6
		c1.3,0,3.5,2.5,6.6,7.6c3.1,5.1,7,7.6,11.8,7.6c4.8,0,8.4-1.3,10.8-4c4.8-5.1,7.6-8,8.4-8.8c0.3,0.3,0.2,1.3-0.2,3
		c-0.4,1.7-0.6,3-0.6,3.8c0,3.7,1.7,5.6,5.2,5.6c3.5,0,6-1.6,7.6-4.8c2.7-5.3,4.5-8.5,5.6-9.6c0.5,3.7,1.9,6.7,4,9
		c2.1,2.3,4.4,3.4,6.8,3.4c1.3,0,2.9-0.7,4.8-2v-1.6c-2.9-6.7-6.9-16.5-12-29.6c-0.5-1.9-1.3-3.9-2.4-6c-0.3-0.8-0.7-1.8-1.2-3
		c-0.5-1.2-0.8-2.1-0.8-2.6c0-0.5,0.5-2.2,1.6-5c1.1-2.8,1.7-4.5,2-5c1.3,1.3,5.2,6.5,11.6,15.6c-0.5,0.8-0.7,1.3-0.4,1.6l-4.8-2
		c-0.3,0.3-0.4,0.5-0.4,0.8C576.3,84.9,580.4,95.1,580.4,100.4z M404,158c-5.3,12.5-12.1,18.8-20.4,18.8c-4.3,0-6.4-2.8-6.4-8.4
		c0-1.3,2.1-3.3,6.4-5.8c4.3-2.5,6.5-4.7,6.8-6.6c-2.9-0.5-4.5-1.5-4.8-2.8c-0.3-1.3,0.1-3.1,1-5.2c0.9-2.1,1.8-3.3,2.6-3.6l-1.2-2
		l0.4-1.2c1.1,0,2.8,0.5,5.2,1.6v0.8c2.1,1.3,4.4,3.7,6.8,7.2c0.8,4,0,6.1-2.4,6.4c-1.6,0.3-3.5,0.1-5.6-0.4c-0.3,3.2-1.7,5.9-4.4,8
		c-2.7,1.3-5.6,3.3-8.8,6c0.8,0.8,2.7,1.2,5.6,1.2c3.5,0,7.3-2,11.6-6c2.9-2.9,5.2-5.7,6.8-8.4L404,158z M397.2,31.2
		c-7.7,8-11.6,14.7-11.6,20c0,3.7,1.3,5.6,4,5.6c0.5,0,1.1-0.3,1.6-0.8c0.5-0.5,0.9-0.8,1.2-0.8l0.8,0.8c-2.9,8-5.9,12-8.8,12
		c-3.7,0-5.6-2.4-5.6-7.2c0-5.1,2-11.1,6-18c4.3-6.4,8.3-10.7,12-12.8L397.2,31.2z M392.8,148.8c-0.3-1.1-0.9-1.5-2-1.2
		c-1.6,0.3-2.7,1.1-3.2,2.4c1.3,1.3,2.7,2,4,2C392.4,150.7,392.8,149.6,392.8,148.8z M398.8,152.8c-1.1-0.8-2.5-2-4.4-3.6l-0.4,3.6
		c0.8,0.5,1.9,0.7,3.2,0.4C397.7,153.2,398.3,153.1,398.8,152.8z M426.8,59.2c0,5.9-2,8.8-6,8.8c-1.6,0-3.5-1.1-5.6-3.2
		c-1.1,3.7-3.2,5.6-6.4,5.6c-2.9,0-4.7-2-5.2-6c0-2.9,0-6,0-9.2c-0.8,1.3-1.7,2.9-2.8,4.8v-3.2c0.5-1.3,1.2-2.8,2-4.4
		c1.3-2.1,2.8-3.7,4.4-4.8c-1.1,9.9-0.1,14.8,2.8,14.8c2.4,0,3.6-1.6,3.6-4.8c0-1.3-0.4-4.3-1.2-8.8l2.4-4c1.3,2.1,2.1,5.6,2.4,10.4
		c0.3,3.2,1.5,4.8,3.6,4.8c1.9,0,2.8-0.9,2.8-2.8c0-0.3-0.8-3.3-2.4-9.2l2.4-5.6C425.7,48.8,426.8,54.4,426.8,59.2z M415.2,28
		c0,5.9-1.2,12.3-3.6,19.2c0.5-4,0.8-8.1,0.8-12.4c0-8.8-2.7-15.6-8-20.4l0.8-9.2c3.2,2.4,5.7,6.1,7.6,11.2
		C414.4,20.7,415.2,24.5,415.2,28z M458,42.8c-0.8,2.1-2.8,4.9-6,8.4c-0.8,1.1-3.2,2.3-7.2,3.8c-4,1.5-6.9,2.2-8.8,2.2
		c-1.1,0-2.3-0.1-3.6-0.4c7.7-2.4,12.9-4.9,15.6-7.6c-2.7-1.1-5.5-1.6-8.4-1.6c-0.5,0-1.1,0.1-1.8,0.4c-0.7,0.3-1.1,0.4-1.4,0.4
		c0-7.2,3.3-10.4,10-9.6C450.1,39.3,454,40.7,458,42.8z M477.2,113.2c0,6.9-0.9,12.8-2.8,17.6h-3.2c0.5-7.2,0-16-1.6-26.4
		l-12.8-81.6c-0.3-1.1-0.8-2.6-1.6-4.6s-1.2-3.5-1.2-4.6L457.6,0L470,24.8v4l-6-5.6l12.8,80.8C477.1,105.9,477.2,108.9,477.2,113.2z
		 M492,145.6c-6.9,6.9-10.4,12.8-10.4,17.6c0,3.5,1.2,5.2,3.6,5.2c0.3,0,0.7-0.3,1.4-0.8c0.7-0.5,1.1-0.8,1.4-0.8l0.4,0.8
		c-2.4,7.2-4.9,10.8-7.6,10.8c-3.5,0-5.2-2.3-5.2-6.8c0-4.5,1.9-9.7,5.6-15.6c3.7-5.9,7.2-9.6,10.4-11.2L492,145.6z M501.6,34.4
		c-7.7,8-11.6,14.8-11.6,20.4c0,3.7,1.2,5.6,3.6,5.6c0.5,0,1.1-0.3,1.8-0.8c0.7-0.5,1.1-0.8,1.4-0.8l0.8,0.4
		c-2.9,8.3-5.9,12.4-8.8,12.4c-3.7,0-5.6-2.5-5.6-7.6c0-5.1,2.1-10.9,6.2-17.6c4.1-6.7,8.1-10.9,11.8-12.8L501.6,34.4z M549.6,139.2
		c0.3,2.1,0,4.1-0.8,6c-0.8,1.9-1.9,2.8-3.2,2.8c-1.6,0-2.8-0.7-3.6-2c-1.9,2.7-3.5,4-4.8,4c-0.8,0-1.9-0.3-3.4-1
		c-1.5-0.7-2.6-1-3.4-1c-0.5,0-2.4,1.7-5.6,5.2c-3.7,4.5-8.1,8.1-13.2,10.8c-4.3,2.4-10,4-17.2,4.8v-0.4c10.7-4.5,20-10.3,28-17.2
		c6.7-5.6,10.4-8.4,11.2-8.4c0.8,0,1.7,0.3,2.6,1c0.9,0.7,1.7,1,2.2,1c1.6,0,3.5-1.6,5.6-4.8l0.4,0.8c-0.8,1.6-0.4,2.4,1.2,2.4
		c1.6,0,2.7-1.2,3.2-3.6L549.6,139.2z M541.2,32.4c0,1.9-0.7,3.9-2,6c-1.3-1.3-2.5-2-3.6-2c-1.9,0-3.3,2.7-4.4,8
		c-0.8,4-1.5,8.1-2,12.4c-1.1-3.2-3.1-7.5-6-12.8c-0.5,2.4-1.7,3.6-3.6,3.6c-1.1,0-2.2-0.6-3.4-1.8s-1.8-2.6-1.8-4.2
		c0-4.3,1.5-6.4,4.4-6.4c3.7,0,6.9,4.3,9.6,12.8c2.4-14.7,5.6-22,9.6-22C540.1,26,541.2,28.1,541.2,32.4z M547.6,67.6
		c-0.8,2.1-2.8,5.1-6,8.8c-0.8,0.5-3.2,1.7-7.2,3.4c-4,1.7-6.9,2.6-8.8,2.6c-0.8,0-1.9-0.3-3.2-0.8c7.5-2.4,12.5-4.9,15.2-7.6
		c-2.4-0.8-5.2-1.2-8.4-1.2c-0.5,0-1.1,0.1-1.6,0.2c-0.5,0.1-1.1,0.2-1.6,0.2c0-7.2,3.3-10.3,10-9.2
		C539.7,64.3,543.6,65.5,547.6,67.6z M584.4,145.2l-2,6.4c-17.1,3.5-30.9,10.8-41.6,22l1.6-7.2C553.6,154.7,567.6,147.6,584.4,145.2
		z M575.2,132.4c0,1.1-0.5,3-1.6,5.8c-1.1,2.8-1.9,4.6-2.4,5.4c-5.9-2.9-9.9-4.7-12-5.2c1.1-3.5,2.4-7.3,4-11.6
		C568,128.1,572,130,575.2,132.4z"/>
</g>
</svg>
