<svg xmlns="http://www.w3.org/2000/svg" xmlns:xlink="http://www.w3.org/1999/xlink" viewBox="0 0 144 83.11"><defs><style>.cls-1{fill:none;}.cls-2{clip-path:url(#clip-path);}.cls-3{fill:#274569;}.cls-4{fill:#e2b53b;}</style><clipPath id="clip-path" transform="translate(-0.06 -0.16)"><rect class="cls-1" width="144.12" height="83.32"/></clipPath></defs><g id="Ebene_2" data-name="Ebene 2"><g id="Ebene_1-2" data-name="Ebene 1"><g class="cls-2"><path class="cls-3" d="M97.89,9.83c0-.23-.08-.47-.39-.51s-.36.2-.44.4a4.21,4.21,0,0,0-.12.48,9.72,9.72,0,0,1-.21,1.1,7.93,7.93,0,0,0-.5,3.09,14.5,14.5,0,0,0,.56,3.33A14.36,14.36,0,0,0,98,20.83c.46.86.9,1.73,1.36,2.59.36.66.65,1.36,1,2,.48.94,1,1.89,1.37,2.86a19.89,19.89,0,0,1,.94,2.51,5.83,5.83,0,0,1,0,3.26,6.54,6.54,0,0,0-.37,1.86c0,.12,0,.28.11.34s.26-.11.31-.22a7.78,7.78,0,0,0,.42-.93A16.66,16.66,0,0,0,104,32a16.38,16.38,0,0,0,.31-3.83,18.07,18.07,0,0,0-.43-2.31,11.14,11.14,0,0,0-.78-2.21c-.51-1.15-1.11-2.27-1.64-3.41s-1.25-2.3-1.78-3.49a12.67,12.67,0,0,1-1.33-3.85,3.57,3.57,0,0,0-.1-.57,20.53,20.53,0,0,1-.36-2.08,2.81,2.81,0,0,0,0-.41ZM87.4,52.08a10.42,10.42,0,0,0-.77-3.75c-.22-.69-.51-1.36-.75-2s-.5-1.28-.79-1.91c-.52-1.15-1.09-2.28-1.63-3.43-.43-.89-.87-1.77-1.37-2.63s-.9-1.64-1.39-2.43-.83-1.55-1.3-2.3a9.67,9.67,0,0,1-1.05-1.82,7.4,7.4,0,0,1-.58-2.9.74.74,0,0,0-.47-.72c-.21-.11-.39-.05-.4.17,0,.45-.22.87-.26,1.29-.07,1-.29,1.89-.31,2.85a8.33,8.33,0,0,0,.13,2.44,13.24,13.24,0,0,0,1.23,2.91c.92,1.59,1.87,3.15,2.69,4.79l1,2.06c.37.74.74,1.48,1.1,2.22s.85,1.73,1.22,2.62c.49,1.21,1,2.44,1.37,3.68a15.51,15.51,0,0,1,.66,2.77,10.9,10.9,0,0,1-.24,4.44,12.71,12.71,0,0,1-.52,2,4.66,4.66,0,0,0-.32,2.27c0,.12,0,.28.1.34s.2-.11.26-.21a7.85,7.85,0,0,0,.74-1.74c.26-.91.54-1.82.75-2.75.27-1.22.56-2.45.71-3.69.13-1,.12-2,.15-2.8s0-1.25,0-1.76ZM53,38.39c-.11-.25-.27-.52-.57-.43a3.61,3.61,0,0,0-1.2.53A9.74,9.74,0,0,0,49,40.61c-.56.8-1,1.68-1.53,2.49a9.78,9.78,0,0,0-.74,1.25,15,15,0,0,1-2.65,3.85,27.42,27.42,0,0,1-3.65,3.33,5.09,5.09,0,0,1-3.74,1.25,3.18,3.18,0,0,1-1.36-.45,9.46,9.46,0,0,1-1.8-1.55,10.8,10.8,0,0,1-2.37-5.21c-.14-.55-.3-1.11-.39-1.69,0-.09,0-.26-.16-.26s-.11.19-.12.3a.94.94,0,0,0,0,.29,19,19,0,0,0,.77,4.31,9.21,9.21,0,0,0,.63,1.71,21.87,21.87,0,0,0,1.88,3.33,19,19,0,0,0,2,2.24,4.05,4.05,0,0,0,2.26.81,7.43,7.43,0,0,0,1.76-.21,4.85,4.85,0,0,0,1.92-.71,9.08,9.08,0,0,0,2-1.55c.74-.67,1.4-1.43,2.09-2.16a20.25,20.25,0,0,0,2.79-4.21c.59-1.06,1.13-2.17,1.71-3.24a8.12,8.12,0,0,1,2.49-2.82.78.78,0,0,0,.38-.7c0-.23,0-.47,0-.7A4.84,4.84,0,0,0,53,38.39ZM131.27,17a3.75,3.75,0,0,0,0-.58.44.44,0,0,0-.37-.39c-.24,0-.24.17-.31.32a1.57,1.57,0,0,0-.15.68,7.81,7.81,0,0,1-.19,1.36,11.15,11.15,0,0,0-.36,2.45c0,.3.14.57.11.86a9.54,9.54,0,0,0,.88,4,21.79,21.79,0,0,0,1,2.4c.36.71.66,1.44,1.08,2.12.57.94,1.09,1.91,1.63,2.87s1.08,2,1.64,2.94,1.08,1.76,1.56,2.66c.58,1.08,1.16,2.15,1.64,3.28s1,2.37,1.42,3.57c.27.71.46,1.44.67,2.17a23.54,23.54,0,0,1,.78,3.08,11,11,0,0,1-.78,5.76c-.22.56-.43,1.13-.63,1.7,0,.08-.09.19,0,.26s.21,0,.31,0a1,1,0,0,0,.21-.2,7.87,7.87,0,0,0,.87-1.68,20.78,20.78,0,0,0,1.08-3.38c.07-.39.12-.78.22-1.17a30.54,30.54,0,0,0,.45-3.44,15.92,15.92,0,0,0-.18-2.39,14.24,14.24,0,0,0-.41-2.45,10.78,10.78,0,0,0-.42-1.55c-.25-.65-.48-1.32-.71-2-.39-1.07-.87-2.11-1.36-3.14-.4-.85-.88-1.66-1.34-2.49-.32-.59-.65-1.18-1-1.75-.43-.73-.9-1.45-1.33-2.18s-.76-1.33-1.14-2-1-1.56-1.42-2.35-.87-1.81-1.41-2.66a3.16,3.16,0,0,1-.5-.89c-.16-.67-.55-1.22-.76-1.87a10.21,10.21,0,0,1-.8-3.62V17ZM131,44.65a12.11,12.11,0,0,0-1.33-3.71c-.83-1.42-1.67-2.83-2.6-4.19-.73-1.06-1.32-2.21-2.07-3.26-.48-.67-.85-1.41-1.27-2.11a10.43,10.43,0,0,1-1-1.95,5.64,5.64,0,0,1-.5-1.7.35.35,0,0,0-.31-.38c-.21,0-.22.16-.29.28a2.69,2.69,0,0,0-.26,1c-.11.66-.23,1.33-.4,2a6.15,6.15,0,0,0,.49,4.12,34.59,34.59,0,0,0,2.43,4.15c.93,1.43,1.81,2.9,2.77,4.33a20.64,20.64,0,0,1,2.84,6,3.21,3.21,0,0,1,.21.75,7.9,7.9,0,0,0,1.88,4.65,7.23,7.23,0,0,0,2.41,2,9.05,9.05,0,0,0,2.4.58.64.64,0,0,0,.67-.45,11.08,11.08,0,0,0,.78-2.81,7.76,7.76,0,0,1,.13-.82,24.89,24.89,0,0,0,.62-2.82,9.82,9.82,0,0,0-.56-3.95,6.07,6.07,0,0,0-.36-1c-.36-.7-.69-1.41-1.07-2.09a5.62,5.62,0,0,0-1.1-1.54c-.31-.28-.57-.22-.66.18a7.53,7.53,0,0,1-.36,1.23c-.26.66-.22,1.38-.48,2.05a.87.87,0,0,0,.14.85,14.27,14.27,0,0,1,1,1.57,20.35,20.35,0,0,1,1.34,2.88,9.14,9.14,0,0,1,.46,1.8c.05.34-.15.5-.47.44a11,11,0,0,1-2.61-1,8.79,8.79,0,0,1-2.32-1.76,1.18,1.18,0,0,1-.4-1.06c0-.4,0-.8.08-1.26a16.71,16.71,0,0,0-.25-3Zm-25.58-1.59c-.1,0-.13.07-.14.16a.68.68,0,0,0,.12.44,6.42,6.42,0,0,0,1.68,1.84c.24.15.44.38.76.39a2.33,2.33,0,0,1,.85.19c.12.05.28.1.38,0s-.07-.24-.16-.32a25.1,25.1,0,0,0-2.87-2.27,2,2,0,0,0-.62-.39Zm-2.9,22.33a23.49,23.49,0,0,1-3.62-.29c-1.1-.1-2.18-.31-3.28-.44a9.66,9.66,0,0,1-3.07-.9,2.59,2.59,0,0,1-.9-.9.31.31,0,0,1,0-.39c.09-.14.24-.09.38-.06l.11,0a3.15,3.15,0,0,0,2.08.54,22.94,22.94,0,0,0,3.31.08,21,21,0,0,0,3.16-.33c.55-.15,1.13-.21,1.69-.32A12.55,12.55,0,0,0,105.92,61a15.6,15.6,0,0,0,2.74-2,13.48,13.48,0,0,0,2.66-3.38,24.59,24.59,0,0,0,1.35-3.28c.22-.57,0-.91-.58-1.08-1.25-.37-2.54-.6-3.8-1a4.26,4.26,0,0,1-2.25-1,10.75,10.75,0,0,1-1.29-1.85,5.72,5.72,0,0,1-.53-3.84c.29-1.66.83-3.26,1.06-4.93.09-.64.39-.74,1-.42A29,29,0,0,1,109.92,41a11.06,11.06,0,0,1,2.21,2.32c.26.38.65.64.88,1a9.07,9.07,0,0,1,1.32,3.57,15.71,15.71,0,0,1-.19,4.28,20.1,20.1,0,0,1-.87,3.6A20.5,20.5,0,0,1,111.38,60a15.6,15.6,0,0,1-2.49,3.11,4.22,4.22,0,0,1-1,.56,19.27,19.27,0,0,1-2.13,1.07,7.73,7.73,0,0,1-3.27.62Zm-2-18a12.74,12.74,0,0,0-.88-2.13,19.49,19.49,0,0,0-1.3-2.15,8.87,8.87,0,0,0-1.47-1.71c-.35-.29-.65-.22-.73.22s-.32,1.08-.37,1.65a7.1,7.1,0,0,1-.21,1.1,1.33,1.33,0,0,0,.11,1.22c.3.39.64.75.92,1.16a27.5,27.5,0,0,1,2.07,3.56,5.5,5.5,0,0,1,.66,3.16c0,.39-.19.53-.57.52a4.26,4.26,0,0,1-1.53-.31,21.55,21.55,0,0,1-2.41-1.07,16.06,16.06,0,0,1-3.18-2.25c-.69-.62-1.2-1.25-.84-2.24A7.35,7.35,0,0,0,91.11,46a38.17,38.17,0,0,0,.12-4.28,5,5,0,0,0-.11-1.23c-.27-.82-.43-1.66-.7-2.47-.48-1.48-.91-3-1.48-4.42a31.22,31.22,0,0,0-1.47-3.09c-.5-.94-1.08-1.85-1.59-2.8s-1.18-1.91-1.71-2.9c-.29-.52-.67-1-1-1.49-.41-.74-.81-1.47-1.26-2.18a27.24,27.24,0,0,1-1.47-2.84,6.9,6.9,0,0,1-.59-1.89,7.88,7.88,0,0,1,0-3.06,9,9,0,0,0,.31-1.53c0-.24,0-.48-.28-.54s-.35.19-.42.36a21.66,21.66,0,0,0-.79,2.44c-.23,1.08-.55,2.13-.76,3.21a6.73,6.73,0,0,0,.15,3.19,19.2,19.2,0,0,0,2,4.62c1,1.65,1.92,3.31,2.89,5,.41.7.87,1.37,1.26,2.08s.91,1.63,1.38,2.44a18.06,18.06,0,0,1,1,2.06,20.9,20.9,0,0,1,.79,1.95,10.76,10.76,0,0,0,.37,1.09,26.79,26.79,0,0,1,1,2.73c.2.64.37,1.29.54,1.94a4.82,4.82,0,0,1,.23,1.67c-.09.89-.31,1.76-.47,2.64-.05.27-.09.54-.15.81-.11.53-.27,1.08.2,1.56a2.44,2.44,0,0,1,.5.94,6.64,6.64,0,0,0,1.74,2.77,12.77,12.77,0,0,0,3.09,2.37,7.93,7.93,0,0,0,4,1.24.78.78,0,0,0,.83-.59,15.74,15.74,0,0,0,.59-2.53,6.29,6.29,0,0,1,.13-.87,17,17,0,0,0,.74-5,6,6,0,0,0-.26-2Zm20.59,8.17a11.33,11.33,0,0,0-.18-2.46,25.9,25.9,0,0,0-1-3.66c0-.09,0-.23-.19-.24s-.22.1-.27.21c-.14.3-.27.6-.42.9a7.63,7.63,0,0,0-.72,2.64,5.87,5.87,0,0,0,.44,2.51,5.43,5.43,0,0,0,1.6,2.34c.3.26.5.18.56-.22a9.13,9.13,0,0,0,.23-2ZM126.3,15.7a15.68,15.68,0,0,1-.75,5,6.84,6.84,0,0,0-.07,1c-.08.45-.17.92-.29,1.37s-.27.93-.41,1.39a.73.73,0,0,1-1.22.43,21.24,21.24,0,0,1-2.78-2.32c-.2-.22-.47-.56-.69-.49s-.16.51-.18.78a29.63,29.63,0,0,1-.57,3.64c-.18,1-.48,1.93-.7,2.9a9.43,9.43,0,0,1-.55,1.51c-.08.19-.23.22-.44.18a2.44,2.44,0,0,1-1.2-.71,13.54,13.54,0,0,1-1.67-1.46,15.09,15.09,0,0,1-2.34-3.76,12.45,12.45,0,0,1-.87-4.71c0-.13,0-.28-.11-.34s-.19.11-.29.17A6.78,6.78,0,0,0,109.4,22c-.37.43-.18.91-.08,1.38a17.63,17.63,0,0,0,1.06,2.81,14.78,14.78,0,0,0,1.2,2.21c1,1.58,1.93,3.17,3,4.69.62.91,1.22,1.83,1.77,2.78.42.71.88,1.4,1.29,2.12a27,27,0,0,1,1.74,3.64c.24.62.53,1.23.76,1.86s.38,1.17.62,1.74c.11.25.21.33.46.2a.26.26,0,0,1,.34,0c.12.12,0,.23-.06.34a2.31,2.31,0,0,0-.2,1.56,20.68,20.68,0,0,1,.53,4.15c0,.73.18,1.45.16,2.19,0,1.44-.24,2.87-.28,4.3a3.77,3.77,0,0,0,0,.58,4.13,4.13,0,0,1-.6,2.25c-.15.29-.37.32-.64.12a9,9,0,0,1-2-1.93,8.89,8.89,0,0,1-.9-2,5.85,5.85,0,0,1-.35-2.07c0-.34-.16-.64-.19-1a7.48,7.48,0,0,1,.33-2.75,9.11,9.11,0,0,1,1.2-2.47c.28-.42.74-.84.45-1.46-.19-.39-.36-.8-.56-1.19-.37-.78-.7-1.58-1.13-2.33s-.93-1.61-1.41-2.41c-.71-1.18-1.53-2.28-2.22-3.47-.37-.62-.86-1.17-1.25-1.78A51.28,51.28,0,0,1,109.28,31a29.49,29.49,0,0,1-1.4-3.44,8.08,8.08,0,0,1-.48-3.82c.17-1.06.3-2.13.51-3.19a5.94,5.94,0,0,1,1.49-2.94,11.52,11.52,0,0,1,2.35-2.11,4.8,4.8,0,0,1,1-.43c.39-.11.61,0,.63.44a9.45,9.45,0,0,1-.25,2.59c-.09.36-.27.69-.37,1a1.86,1.86,0,0,0,.29,1.43c.19.37.31.76.49,1.13a13.94,13.94,0,0,0,3.25,4,6,6,0,0,0,.77.55c.34.23.51.15.56-.25a5.91,5.91,0,0,0-.14-2.06c-.15-.66-.24-1.33-.41-2-.34-1.25-.73-2.48-1.13-3.71-.22-.68-.41-1.37-.69-2-.46-1.12-.87-2.26-1.39-3.35a11.17,11.17,0,0,1-.62-1.67A2.94,2.94,0,0,1,114,9.56a14.73,14.73,0,0,1,.55-1.86c0-.07,0-.14.06-.2.23-.52.56-.57.85-.08s.54,1.11.79,1.68c.47,1.05.94,2.11,1.37,3.18a10.25,10.25,0,0,1,.51,1.44,4.77,4.77,0,0,0,1.37,2.49c1.26,1.16,2.49,2.35,3.75,3.52a6.9,6.9,0,0,0,.92.69c.25.16.44.16.54-.21a6.3,6.3,0,0,0-.23-3.36,12.1,12.1,0,0,0-.64-1.74,19.88,19.88,0,0,0-1.37-2.63c-.56-.93-1.06-1.89-1.62-2.82A14.43,14.43,0,0,1,119.72,7a2.12,2.12,0,0,1-.09-1.22c.22-1,.45-1.91.67-2.86a.61.61,0,0,1,.08-.28c.11-.15.16-.36.41-.36a.45.45,0,0,1,.43.34c.17.42.32.85.47,1.28a8.43,8.43,0,0,0,.83,1.74C123.2,6.75,124,7.84,124.59,9A13.56,13.56,0,0,1,126,12.81a13.61,13.61,0,0,1,.32,2.89ZM49.17,58s0,.06,0,.07.07,0,.07,0,0,0,0-.06ZM62.23,79.35a6.34,6.34,0,0,0-.59-2.88,14.17,14.17,0,0,0-1.37-2.86,18,18,0,0,0-2.46-3.29c-.24-.25-.26-.12-.33.09a4.81,4.81,0,0,0-.27,1.25A7.28,7.28,0,0,1,57,72.89a6.21,6.21,0,0,0,.28,2.84l0,0a8.49,8.49,0,0,0,2.48,3,6.31,6.31,0,0,0,1.94,1C62.16,79.81,62.27,79.71,62.23,79.35ZM56.2,73a7.9,7.9,0,0,1,.7-3.14.45.45,0,0,0-.1-.59c-.6-.61-1.2-1.2-1.81-1.8-1.43-1.4-3-2.62-4.39-4.06A5.25,5.25,0,0,1,49,60.7a7.11,7.11,0,0,1,0-2.52A1.4,1.4,0,0,0,49,57.9a23.12,23.12,0,0,1,.4-3.42A8.36,8.36,0,0,1,50.77,51a14.35,14.35,0,0,1,2-2.41A11.08,11.08,0,0,1,54.66,47c.32-.2.8.1.93.55a2.39,2.39,0,0,1,.09.45,1.09,1.09,0,0,0,.4.77,3.55,3.55,0,0,1,.72,1.1c.3.63.65,1.24,1,1.85a9.59,9.59,0,0,0,1.14,1.56c.23.3.48.57.73.84a5.86,5.86,0,0,0,3.1,1.54,2.65,2.65,0,0,0,1.79-.41A7.88,7.88,0,0,0,67,53a36.11,36.11,0,0,0,2.46-3.71c.09-.15.17-.37.39-.29a.52.52,0,0,1,.41.47,4.31,4.31,0,0,1,0,.95A2.65,2.65,0,0,0,71,52.77a8,8,0,0,0,2.87,2.16A22.25,22.25,0,0,0,77,56a7,7,0,0,0,1.53.13c.23,0,.34-.09.3-.4a20.5,20.5,0,0,0-1.37-4.54c-.57-1.39-1.24-2.72-1.94-4.06-.48-.93-.91-1.9-1.4-2.83-.4-.76-.86-1.47-1.25-2.24s-.68-1.4-1-2.11a13.35,13.35,0,0,1-.74-1.52c-.2-.58-.54-1.11-.74-1.69s-.47-1.09-.7-1.64c-.42-1-.86-2-1.21-3a24.07,24.07,0,0,1-1.19-4.38c-.18-1.2-.26-2.39-.35-3.59a9.09,9.09,0,0,1,.11-2.34c.26-1.29.35-2.62.73-3.9a24.66,24.66,0,0,1,.69-2.37c.07-.16.07-.39.33-.34s.33.23.35.46a2.76,2.76,0,0,1-.09,1,11.48,11.48,0,0,0-.34,3.78,11,11,0,0,0,.19,2.36c.22,1,.39,2,.69,2.93.21.7.49,1.37.69,2.08s.48,1.17.68,1.77c.41,1.23,1,2.36,1.5,3.58s1.06,2.08,1.57,3.13c.38.8.83,1.58,1.23,2.38s1,1.76,1.38,2.68.74,1.69,1.13,2.52a24.47,24.47,0,0,1,1.12,2.83c.18.55.26,1.14.45,1.69a21.44,21.44,0,0,1,.71,4.36,6.08,6.08,0,0,1,0,1.9,9.25,9.25,0,0,0-.15,1.82,28,28,0,0,1-.31,3,3.4,3.4,0,0,1-.34,1,.7.7,0,0,1-.72.4,10,10,0,0,1-3.41-.73,11.42,11.42,0,0,1-2.54-1.28,9.35,9.35,0,0,1-2.05-2A4.16,4.16,0,0,1,69.72,55a2.1,2.1,0,0,0-.06-.24.37.37,0,0,0-.23-.32c-.13,0-.21.13-.27.22-.62.94-1.21,1.9-1.86,2.82a6.19,6.19,0,0,1-3.37,2.64,2.52,2.52,0,0,1-1.16,0,9.76,9.76,0,0,1-3-1.19,7.71,7.71,0,0,1-2.25-2.37A19.73,19.73,0,0,1,55.31,53a6,6,0,0,0-.63-1,.52.52,0,0,0-.8-.09,10.46,10.46,0,0,0-3.21,3.6,2.28,2.28,0,0,0,.38,2.66,35.88,35.88,0,0,0,4.12,4.15c.87.81,1.68,1.69,2.55,2.52a14.84,14.84,0,0,1,1.89,2.07,17,17,0,0,1,2.06,3.74,23.33,23.33,0,0,1,1.24,8.93c0,.65,0,1.29-.06,1.94a7.11,7.11,0,0,0-.13,1.22c0,.26-.22.41-.46.46a2.09,2.09,0,0,1-1.11,0,5.24,5.24,0,0,1-2.85-2.13c-.13-.21-.3-.39-.44-.6a8.87,8.87,0,0,1-1.34-3.37c-.26-1.38-.17-2.76-.32-4.12ZM20.64,38.71a2.17,2.17,0,0,0-1.72,1,.5.5,0,0,0,0,.68,1.34,1.34,0,0,0,1.08.51,4,4,0,0,0,2.57-1c.18-.16.2-.24,0-.42a2.88,2.88,0,0,0-2-.82ZM.08,28.7a19,19,0,0,1,.38-3.47c.09-.51.21-1,.26-1.54,0-.12.05-.23.19-.23s.12.13.15.22a2.16,2.16,0,0,1,0,1.42,2.53,2.53,0,0,0-.1.78,21.41,21.41,0,0,0-.18,3.39,26.78,26.78,0,0,0,.8,5,8.65,8.65,0,0,0,2.95,4.27,4.08,4.08,0,0,0,3.35.81,3.07,3.07,0,0,0,1.24-.73A10.54,10.54,0,0,0,11,37a5.36,5.36,0,0,0,1.13-5.29,24.81,24.81,0,0,0-1-2.94,25,25,0,0,0-1.56-2.94,1.24,1.24,0,0,1-.2-.74,21.69,21.69,0,0,1,.25-2.26L9.7,22c0-.21,0-.46.26-.55s.43.06.6.25A6.26,6.26,0,0,1,11.41,23a24.89,24.89,0,0,1,1.31,2.76,14.27,14.27,0,0,1,.86,3.65,11.54,11.54,0,0,1,.14,2.69c-.24,1.65,0,3.32-.25,5-.07.53-.13,1.07-.25,1.59a6.5,6.5,0,0,1-2.69,4,1.05,1.05,0,0,0-.52.93c0,.56,0,1.11,0,1.66a14.73,14.73,0,0,0,.73,4.47,5.34,5.34,0,0,0,.57,1.41,15,15,0,0,0,1.45,1.74,10,10,0,0,0,2.78,1.89,3.49,3.49,0,0,0,2.44.43,7.21,7.21,0,0,0,2.12-1A14.46,14.46,0,0,0,24.2,49.9a11.68,11.68,0,0,0,1.46-3.56,4.85,4.85,0,0,0,0-1.74,10.5,10.5,0,0,0-.4-1.56c-.14-.44-.27-.5-.62-.22s-.84.75-1.29,1.09a5.85,5.85,0,0,1-3.23,1.51,2.93,2.93,0,0,1-2.68-1.89,5.51,5.51,0,0,1-.14-2.85c.22-1.06.25-2.17.47-3.24a4.13,4.13,0,0,1,2.2-3,2.5,2.5,0,0,1,2.09-.08,7.38,7.38,0,0,1,3.37,2.27c.34.37.47.38.8,0a22.91,22.91,0,0,0,1.69-2.23.58.58,0,0,0-.14-.89,4.62,4.62,0,0,0-2.27-1.19,2.14,2.14,0,0,0-1.69.34.69.69,0,0,1-.82,0c-.24-.14-.19-.39-.15-.6.19-1.11.39-2.23.59-3.34a1.23,1.23,0,0,1,.39-.63,5.78,5.78,0,0,1,2-1.62A6,6,0,0,1,29.38,26c.42.1.82.21,1.23.34a1.76,1.76,0,0,1,1.14,1.4,7.61,7.61,0,0,1-.2,2.47c-.16.5,0,.59.45.78a2.23,2.23,0,0,0,2.28-.53,21.37,21.37,0,0,0,3.9-3.82,20.45,20.45,0,0,0,1.67-2.59q.54-.9,1-1.83c.47-.93.94-1.86,1.44-2.78s.87-1.56,1.3-2.34c.13-.23.34-.52.24-.72s-.47-.09-.69,0c-1.1.3-2.24.37-3.35.67-.64.16-1.28.34-1.92.48a12.06,12.06,0,0,0-1.74.54,8.21,8.21,0,0,0-2.33,1.21,8.06,8.06,0,0,0-1.37,1.49,1.13,1.13,0,0,0-.14.39c-.19.72-.37,1.44-.55,2.16a.67.67,0,0,1-.19.36c-.23.17-.42.12-.44-.16a7.45,7.45,0,0,1,.2-2.1c.12-.57.32-1.14.45-1.71a10.7,10.7,0,0,1,.9-2.66,7.63,7.63,0,0,1,1.43-1.64,6.28,6.28,0,0,1,2.18-1.23,19.67,19.67,0,0,1,3.57-1c1.34-.29,2.7-.54,4-.78.5-.08.55-.13.42-.63a7.75,7.75,0,0,1-.23-3.61c.18-.89.24-1.8.5-2.68,0-.16.13-.27.31-.27a.33.33,0,0,1,.36.32,12,12,0,0,0,.48,2.14,16.78,16.78,0,0,0,.84,2.06c.18.47.45.91.65,1.38s.53.6.94.29c.74-.59,1.46-1.21,2.19-1.81s1.66-1.36,2.5-2a7.76,7.76,0,0,0,1.05-.93,3.9,3.9,0,0,1,.75-.59c.19-.12.39-.25.6-.1s.46.38.37.73c-.22.81-.44,1.62-.65,2.43-.32,1.24-1.34,1.9-2.21,2.68s-1.7,1.47-2.55,2.2l-.65.57a.44.44,0,0,0-.09.6c.18.27.31.55.48.82.43.65.82,1.33,1.21,2s.66,1.17,1,1.76.5,1,.77,1.45.44.58,1,.4a5.14,5.14,0,0,0,3.38-3.08,7.85,7.85,0,0,0,.6-1.83.18.18,0,0,1,0-.11c.11-.11.09-.38.33-.31s.12.27.11.41a14.14,14.14,0,0,1-.48,2.71,23,23,0,0,1-1.06,2.77,7,7,0,0,1-2.12,2.74.59.59,0,0,0-.26.59c.08.9.08,1.8.08,2.7a23.21,23.21,0,0,1-.44,4A29,29,0,0,1,53,36.38s0,0,0,0c-.11.18-.19.49-.39.46s-.16-.35-.13-.54a19.89,19.89,0,0,1,.47-2.76,8,8,0,0,0,.26-3.82,15.4,15.4,0,0,0-.88-2.93c-.25-.59-.52-.65-1.16-.5a8.49,8.49,0,0,0-2.71,1.26,5.7,5.7,0,0,0-2,2.63,1.26,1.26,0,0,1-.23.48c-.07.06-.1.18-.23.14s-.11-.15-.12-.24A7.76,7.76,0,0,1,46,28.86a5.59,5.59,0,0,0,.12-.82,5.61,5.61,0,0,1,1-2.83,6.49,6.49,0,0,1,2.42-2.05c.63-.35.56-.43.27-.91l-1.46-2.49c-.43-.73-.87-1.46-1.29-2.2-.18-.32-.38-.25-.58,0a18.71,18.71,0,0,0-2.83,3.89c-.41.73-.83,1.45-1.26,2.17s-.69,1.22-1,1.85c-.43.86-.84,1.73-1.33,2.57s-.91,1.41-1.38,2.11a20.78,20.78,0,0,1-2.72,3.14c-.43.41-.9.76-1.31,1.19a2.48,2.48,0,0,1-1.41.82c-.21,0-.31.19-.5.26a3.24,3.24,0,0,1-2-.25c-.54-.18-.66,0-.9.36s-.62,1-.88,1.53-.85,1.18-1.21,1.82a2.73,2.73,0,0,0-.46,1.58,21.27,21.27,0,0,1-.08,4,10,10,0,0,1-.36,1.94,5.47,5.47,0,0,0-.12,1.15c-.08.76-.28,1.49-.37,2.25a6.16,6.16,0,0,1-.52,1.77c-.35.85-.75,1.68-1.15,2.51a8.91,8.91,0,0,1-2.18,2.91,21.16,21.16,0,0,1-1.78,1.48,5,5,0,0,1-4.88.77,7.24,7.24,0,0,1-2-1.14,10.24,10.24,0,0,1-1.52-1.27,11.2,11.2,0,0,1-1.51-2.35,14.59,14.59,0,0,1-.94-2.42,11.59,11.59,0,0,1-.48-2.69,43.24,43.24,0,0,1,.06-5.69c0-.37-.15-.39-.43-.33a6.19,6.19,0,0,1-2.06.07,5.23,5.23,0,0,1-3.35-1.57,8.84,8.84,0,0,1-1.69-2.42,26.88,26.88,0,0,1-1.37-4,7.87,7.87,0,0,1-.15-1.07A35.77,35.77,0,0,1,.08,28.7Z" transform="translate(-0.06 -0.16)"/><path class="cls-4" d="M130.92,26.93a.79.79,0,0,0-.91-.51c-.4.15-.18.49-.17.75a1.06,1.06,0,0,0,.14.51,1.72,1.72,0,0,1,.14.81c0,.11,0,.23-.16.26s-.18-.1-.23-.2c-.16-.39-.31-.79-.47-1.18s-.49-.37-.81-.32-.25.33-.25.54a3.36,3.36,0,0,0,.24,1.29c.16.42-.15.62-.41.8a.49.49,0,0,1-.75-.16,1.94,1.94,0,0,1-.39-1.15c0-.55-.42-.42-.71-.47s-.26.27-.26.44a6.24,6.24,0,0,0,.43,2.09,1.17,1.17,0,0,0,1,.94,1.73,1.73,0,0,0,1.38-.64,1.19,1.19,0,0,1,1.14-.48c.24,0,.55.08.69-.17.31-.56.77-1.07.61-1.8a2.77,2.77,0,0,0-.29-1.35ZM90.35,24.58a.71.71,0,0,1-1.12-.16,2.23,2.23,0,0,1-.42-1.15c0-.24-.11-.28-.32-.16a.45.45,0,0,0-.24.4,3.1,3.1,0,0,0,.28,1.2,1.47,1.47,0,0,0,2.55.7c.27-.23.48-.22.68.07a1,1,0,0,0,.68.42,2,2,0,0,0,1.87-1c.21-.54.39-1.09.62-1.62a1.16,1.16,0,0,0-.27-1.36c-.32-.33-.51-.85-1.18-.62-.41.14-.59.35-.35.75a7.17,7.17,0,0,0,.57.76.48.48,0,0,1,0,.7,2.83,2.83,0,0,1-.35.34c-.19.16-.4.33-.63.21a.79.79,0,0,1-.52-.69,5.14,5.14,0,0,0-.07-.78c-.06-.42-.29-.56-.73-.55s-.49.27-.46.62c0,.12,0,.25,0,.41A1.5,1.5,0,0,1,90.35,24.58Zm19.3-20.8c0,.46.06.91.1,1.37a.75.75,0,0,0,.47.67,1.34,1.34,0,0,0,1.55-.34,2.67,2.67,0,0,0,.46-.64c.13-.27.3-.39.62-.21a1.29,1.29,0,0,0,1.08.14,3.05,3.05,0,0,0,1.8-3.54,1.39,1.39,0,0,0-.53-.81c-.27-.16-.61-.37-.88-.18s-.16.56,0,.85a4.31,4.31,0,0,0,.35.79.6.6,0,0,1-.1.82c-.21.2-.42.51-.77.37s-.39-.46-.42-.79v0c0-.55-.29-.77-.92-.72-.47.05-.18.46-.25.7a1,1,0,0,0,0,.38,1.45,1.45,0,0,1-.41,1,.55.55,0,0,1-.6.18.56.56,0,0,1-.39-.49c0-.14,0-.3,0-.45,0-.38-.28-.47-.6-.48s-.44.17-.45.46v1ZM133.43,38.7a22.37,22.37,0,0,0,1.22-2.51.81.81,0,0,0-.52-1.24,12.21,12.21,0,0,1-2-1c-.73-.39-1.19-.25-1.34.43-.21.94-.61,1.83-.81,2.77a.54.54,0,0,0,.23.63,4.69,4.69,0,0,0,1.36.76c.4.12.66.55,1.09.48a.79.79,0,0,0,.77-.37ZM102.92,11.76a7.83,7.83,0,0,0,.28,1.16.54.54,0,0,0,.33.44,2.25,2.25,0,0,0,3.26-1.28c.15-.37.25-.76.38-1.14a7.39,7.39,0,0,0,.5-2.87c0-.29-.13-.5-.43-.5s-.45.22-.45.49a12.57,12.57,0,0,1-.28,1.84,1.27,1.27,0,0,1-1.79.9,1.08,1.08,0,0,1-.55-1.28,26.61,26.61,0,0,0,1-2.86.6.6,0,0,0-.41-.75c-.31-.12-.27.2-.38.32a.64.64,0,0,0-.1.13,6.11,6.11,0,0,0-1.31,4.29v1.11Zm-10,22.74a8.49,8.49,0,0,1,2.27.73c.53.24.86.16,1.1-.36.39-.83.79-1.66,1.19-2.49.21-.45.11-.92-.33-1.06a26,26,0,0,0-3.09-1c-.22,0-.46-.34-.68-.07a3,3,0,0,0-.32.67s0,.05,0,.07c-.23.42-.22.92-.43,1.34a4.19,4.19,0,0,0-.39,1.43c0,.49.15.67.71.77ZM8.76,31.62A.73.73,0,0,0,8.31,31a17.62,17.62,0,0,0-2.56-.89c-.31-.1-.63-.21-1-.28s-.41,0-.49.31c-.27,1-.39,2.08-.58,3.13-.07.38.08.57.44.71,1.31.48,2.69.71,4,1.23.24.09.26,0,.34-.2a4.93,4.93,0,0,0,.27-2.12V31.62ZM42,37.26c-.61-.23-1.25-.32-1.85-.59a4.66,4.66,0,0,0-.89-.3c-.56-.11-.78,0-.89.58-.21,1-.6,2-.81,3-.05.2,0,.4.17.45a6.73,6.73,0,0,1,.8.42c.74.37,1.57.46,2.32.8.59.27.78.11,1.14-.45a8.8,8.8,0,0,0,.46-1.57,3.8,3.8,0,0,0,.3-1.45c0-.44-.26-.72-.75-.91ZM68.14,65A3.39,3.39,0,0,0,67,64.6l-2.32-.76c-.34-.11-.53,0-.67.35-.41,1.06-.72,2.14-1.05,3.22a.48.48,0,0,0,.35.7c.74.22,1.45.51,2.19.73a3.26,3.26,0,0,1,.94.36.89.89,0,0,0,1-.1c.44-.24.51-.7.72-1.07a8.42,8.42,0,0,0,.67-1.91A1.11,1.11,0,0,0,68.14,65ZM59.85,29.94a1.45,1.45,0,0,0,1.78.94,2.16,2.16,0,0,0,1.17-1.22c.34-.75.55-1.55.88-2.31a2.23,2.23,0,0,0,0-1.55.27.27,0,0,0-.24-.24c-.15,0-.24.05-.32.2a1.45,1.45,0,0,0-.23.56,1.6,1.6,0,0,1-.42.84c-.26.31-.83.44-1,.18a1.78,1.78,0,0,1-.51-1.43c.08-.42.19-.83.27-1.25a16.21,16.21,0,0,1,1.21-3.1c.34-.81.7-1.61,1-2.42.06-.15.1-.36-.1-.44a.4.4,0,0,0-.49.07,7,7,0,0,0-.55.67,24.94,24.94,0,0,0-2.08,4.48,15.21,15.21,0,0,0-.66,4.19,4.73,4.73,0,0,0,.27,1.83ZM76.1,64.5a3.86,3.86,0,0,0-.7-.36c-1.07-.39-2.12-.85-3.16-1.33-.59-.27-.79-.18-1,.46a8.75,8.75,0,0,1-.5,1.44,6.65,6.65,0,0,0-.52,1.56.58.58,0,0,0,.37.77,14,14,0,0,0,2.89,1.08.66.66,0,0,1,.26.11c.59.45.64.44,1.16-.07a3.13,3.13,0,0,0,.52-.69c.19-.32.3-.67.49-1a2.62,2.62,0,0,0,.43-1.39.56.56,0,0,0-.27-.58Zm18.59-53a.33.33,0,0,0-.27,0c-.13.07-.17.22-.24.33a2.73,2.73,0,0,1-2,1.44c-.76.08-1.53.13-2.3.21a24.48,24.48,0,0,0-3.08.4,2.87,2.87,0,0,0-2.16,1.54c-.25.53-.36,1.1-.62,1.63a6.43,6.43,0,0,0-.55,1.42c0,.22-.3.5,0,.66s.4-.21.54-.38a2.25,2.25,0,0,1,1.38-1c1.62-.21,3.23-.47,4.85-.63a3.38,3.38,0,0,0,2.4-1.44,22.89,22.89,0,0,0,1.48-2.16,3.47,3.47,0,0,0,.68-1.84c0-.1,0-.2-.1-.25ZM60.78,39a3.43,3.43,0,0,0-1.49,1.66,11.52,11.52,0,0,0-.69,2.85c0,.23-.17.51.08.64s.38-.19.5-.35a3.66,3.66,0,0,1,3.4-1.57h.25c.18,0,.43-.06.51.17s-.12.33-.23.46c-.57.68-1.17,1.33-1.68,2.07a3.54,3.54,0,0,0-1,2.12c0,.14-.11.33.07.41s.28-.1.4-.17a.68.68,0,0,0,.12-.12,12.38,12.38,0,0,1,2.33-2.06c.68-.41,1.29-.94,2-1.39A4.37,4.37,0,0,0,67.2,42c.3-.7.67-1.37.9-2.09a.64.64,0,0,0-.09-.58A1.5,1.5,0,0,0,67,38.76a21.29,21.29,0,0,0-3.82-.44,3,3,0,0,0-2.36.69ZM25,13.53c-.18-.06-.19-.17,0-.33a3.75,3.75,0,0,1,1-.49.45.45,0,0,1,.62.15,1.08,1.08,0,0,1,.08,1c-.07.14-.24.09-.44.08-.42,0-.8-.26-1.23-.41Zm2.37-2.89a1.45,1.45,0,0,0-1.51-.18c-.43.15-.84.35-1.26.5a3,3,0,0,0-2,1.85A7,7,0,0,0,22.22,15a1.55,1.55,0,0,0,.7,1.29,9.91,9.91,0,0,0,1.72.87c.36.17.42.37.16.67a43.15,43.15,0,0,1-3.7,3.83A20.71,20.71,0,0,1,19,23.5c-.09.07-.32.17-.21.37a.27.27,0,0,0,.4.07,15.72,15.72,0,0,0,3.33-2.25,38.4,38.4,0,0,0,3.33-3.3c.47-.56.73-.58,1.4-.21a1.68,1.68,0,0,0,.42.17.38.38,0,0,0,.42-.14,3.4,3.4,0,0,0,.48-.81,5.37,5.37,0,0,1,.34-1c.36-.7.3-1.13-.52-1.58-.2-.11-.49-.24-.36-.56a4,4,0,0,0,.19-1.38,2.43,2.43,0,0,0-.81-2.19Zm-8.46,2.28a3.58,3.58,0,0,1-.2.83,10.82,10.82,0,0,1-1.94,2.79,6.47,6.47,0,0,1-2.37,1.52,28.26,28.26,0,0,1-4.27.93,28.65,28.65,0,0,0-3.45.62,3.68,3.68,0,0,0-2.47,1.95,1.29,1.29,0,0,1-.25.28.27.27,0,0,1-.37,0,.28.28,0,0,1-.12-.36c.23-.65.46-1.3.7-1.94a7.75,7.75,0,0,1,.61-1.53,5.44,5.44,0,0,1,2.54-2.27,3.7,3.7,0,0,1,1.07-.29c1.11-.09,2.19-.3,3.28-.46a23.2,23.2,0,0,0,4-.59,7.08,7.08,0,0,0,2.73-1.64.41.41,0,0,1,.4-.16c.14,0,.14.15.14.28Z" transform="translate(-0.06 -0.16)"/></g></g></g></svg>