<svg xmlns="http://www.w3.org/2000/svg" xmlns:xlink="http://www.w3.org/1999/xlink" viewBox="0 0 963.63 963.63"><defs><style>.cls-1{fill:url(#Unbenannter_Verlauf_8);}</style><linearGradient id="Unbenannter_Verlauf_8" x1="38.97" y1="99.19" x2="1275.53" y2="1167.6" gradientUnits="userSpaceOnUse"><stop offset="0" stop-color="#22b573"/><stop offset="1" stop-color="#006837"/></linearGradient></defs><g id="Ebene_2" data-name="Ebene 2"><g id="Ebene_1-2" data-name="Ebene 1"><path class="cls-1" d="M954.1,458.83,841.55,346.27a32.56,32.56,0,0,1-9.52-23V164.1a32.51,32.51,0,0,0-32.5-32.51H640.35a32.57,32.57,0,0,1-23-9.51L504.8,9.52a32.53,32.53,0,0,0-46,0L346.28,122.08a32.59,32.59,0,0,1-23,9.51H164.1a32.51,32.51,0,0,0-32.5,32.51V323.28a32.53,32.53,0,0,1-9.53,23L9.53,458.83a32.48,32.48,0,0,0,0,46L122.07,617.35a32.54,32.54,0,0,1,9.53,23V799.52A32.51,32.51,0,0,0,164.1,832H323.28a32.56,32.56,0,0,1,23,9.52L458.82,954.1a32.51,32.51,0,0,0,46,0L617.35,841.55a32.54,32.54,0,0,1,23-9.52H799.53A32.51,32.51,0,0,0,832,799.52V640.34a32.58,32.58,0,0,1,9.52-23L954.1,504.8A32.5,32.5,0,0,0,954.1,458.83Zm-40.7,44L810.55,605.66a29.69,29.69,0,0,0-8.7,21V772.14a29.71,29.71,0,0,1-29.72,29.7H626.67a29.7,29.7,0,0,0-21,8.71L502.82,913.39a29.68,29.68,0,0,1-42,0L358,810.55a29.72,29.72,0,0,0-21-8.71H191.49a29.71,29.71,0,0,1-29.71-29.7V626.67a29.66,29.66,0,0,0-8.71-21L50.23,502.83a29.71,29.71,0,0,1,0-42L153.07,358a29.64,29.64,0,0,0,8.71-21V191.49a29.71,29.71,0,0,1,29.71-29.71H337a29.75,29.75,0,0,0,21-8.7L460.8,50.23a29.7,29.7,0,0,1,42,0L605.66,153.08a29.73,29.73,0,0,0,21,8.7H772.13a29.72,29.72,0,0,1,29.72,29.71V337a29.67,29.67,0,0,0,8.7,21L913.4,460.8A29.73,29.73,0,0,1,913.4,502.83Z"/></g></g></svg>