<svg xmlns="http://www.w3.org/2000/svg" xmlns:xlink="http://www.w3.org/1999/xlink" viewBox="0 0 535.48 476.41"><defs><style>.cls-1{fill:url(#Unbenannter_Verlauf_14);}.cls-2{fill:url(#Unbenannter_Verlauf_17);}.cls-3{fill:#fff;}.cls-4,.cls-5,.cls-6,.cls-7,.cls-8,.cls-9{stroke:#aaa496;stroke-miterlimit:10;stroke-width:0.1px;}.cls-4{fill:url(#Unbenannter_Verlauf_12);}.cls-5{fill:url(#Unbenannter_Verlauf_12-2);}.cls-6{fill:url(#Unbenannter_Verlauf_12-3);}.cls-7{fill:url(#Unbenannter_Verlauf_12-4);}.cls-8{fill:url(#Unbenannter_Verlauf_12-5);}.cls-9{fill:url(#Unbenannter_Verlauf_12-6);}.cls-10{opacity:0.23;}.cls-11{fill:url(#Unbenannter_Verlauf_14-2);}</style><linearGradient id="Unbenannter_Verlauf_14" x1="529.14" y1="489.19" x2="519.79" y2="109.21" gradientTransform="matrix(1, 0, 0, -1, -258.29, 497.15)" gradientUnits="userSpaceOnUse"><stop offset="0" stop-color="#1e8132"/><stop offset="0.66" stop-color="#3aa733" stop-opacity="0.8"/><stop offset="0.67" stop-color="#3aa733" stop-opacity="0.66"/><stop offset="0.69" stop-color="#3aa733" stop-opacity="0.48"/><stop offset="0.72" stop-color="#3aa733" stop-opacity="0.33"/><stop offset="0.74" stop-color="#3aa733" stop-opacity="0.21"/><stop offset="0.77" stop-color="#3aa733" stop-opacity="0.11"/><stop offset="0.81" stop-color="#3aa733" stop-opacity="0.05"/><stop offset="0.86" stop-color="#3aa733" stop-opacity="0.01"/><stop offset="1" stop-color="#3aa733" stop-opacity="0"/></linearGradient><linearGradient id="Unbenannter_Verlauf_17" x1="518.98" y1="358.02" x2="529.11" y2="148.35" gradientTransform="matrix(1, 0, 0, -1, -258.29, 497.15)" gradientUnits="userSpaceOnUse"><stop offset="0" stop-color="#1e8132"/><stop offset="1" stop-color="#2c5e38"/></linearGradient><linearGradient id="Unbenannter_Verlauf_12" x1="369.18" y1="66.53" x2="323.68" y2="110.11" gradientTransform="matrix(1, 0, 0, -1, -258.29, 497.15)" gradientUnits="userSpaceOnUse"><stop offset="0" stop-color="#b6ab8d"/><stop offset="1" stop-color="#e0d2ad"/></linearGradient><linearGradient id="Unbenannter_Verlauf_12-2" x1="392.07" y1="29.92" x2="411.96" y2="99.99" xlink:href="#Unbenannter_Verlauf_12"/><linearGradient id="Unbenannter_Verlauf_12-3" x1="385.8" y1="32.98" x2="451.13" y2="120.4" xlink:href="#Unbenannter_Verlauf_12"/><linearGradient id="Unbenannter_Verlauf_12-4" x1="-370.09" y1="66.53" x2="-415.59" y2="110.11" gradientTransform="translate(54.5 497.15) rotate(180)" xlink:href="#Unbenannter_Verlauf_12"/><linearGradient id="Unbenannter_Verlauf_12-5" x1="-347.2" y1="29.92" x2="-327.31" y2="99.99" gradientTransform="translate(54.5 497.15) rotate(180)" xlink:href="#Unbenannter_Verlauf_12"/><linearGradient id="Unbenannter_Verlauf_12-6" x1="-353.49" y1="32.96" x2="-288.23" y2="120.28" gradientTransform="translate(54.5 497.15) rotate(180)" xlink:href="#Unbenannter_Verlauf_12"/><linearGradient id="Unbenannter_Verlauf_14-2" x1="528.45" y1="460.12" x2="520.27" y2="128.11" xlink:href="#Unbenannter_Verlauf_14"/></defs><g id="Ebene_2" data-name="Ebene 2"><g id="Ebene_1-2" data-name="Ebene 1"><g id="Ebene_1-3" data-name="Ebene 1"><g id="_Radiale_Wiederholung_" data-name=" Radiale Wiederholung "><path class="cls-1" d="M499.59,234.26,439.44,171l2.16-87.23a13.79,13.79,0,0,0-13.43-14.14h0L340.91,67.5,280.74,4.29a13.8,13.8,0,0,0-19.51-.49h0L198,64,110.78,61.8A13.79,13.79,0,0,0,96.64,75.23v0l-2.17,87.23L31.26,222.64a13.8,13.8,0,0,0-.49,19.51h0L91,305.4l-2.21,87.2a13.8,13.8,0,0,0,13.45,14.14h0l87.23,2.17,60.15,63.21a13.82,13.82,0,0,0,19.52.49l63.22-60.16,87.23,2.16a13.8,13.8,0,0,0,14.19-13.38v-.07l2.17-87.23,63.21-60.16A13.8,13.8,0,0,0,499.59,234.26Zm-19.24,17.45L427.47,302l-5.84,5.56-.2,8.06-1.81,73a11.55,11.55,0,0,1-11.83,11.25l-73-1.81-8-.2h0L321,403.45l-52.89,50.32a11.53,11.53,0,0,1-16.29-.34l0,0-50.33-52.88-5.56-5.84-8.11-.28-73-1.81a11.54,11.54,0,0,1-11.25-11.82h0l1.81-73,.2-8.05h0L100,293.87,49.63,241a11.54,11.54,0,0,1,.38-16.3l0,0,52.89-50.26,5.84-5.56.2-8.06,1.81-73a11.54,11.54,0,0,1,11.81-11.26h0l73,1.81,3.41.08,4.64.12h0L209.49,73l52.89-50.32a11.53,11.53,0,0,1,16.3.39l0,0L329,76l2.35,2.48,3.21,3.36,8.06.2,73,1.81a11.56,11.56,0,0,1,11.26,11.83l-1.81,73-.2,8.05h0l5.55,5.84,50.29,52.88a11.52,11.52,0,0,1-.38,16.3Z"/></g></g><g id="Ebene_2-2" data-name="Ebene 2"><path class="cls-2" d="M338.62,270c0,17.73,9.61,14.38,9.61,27.11V354h-9.94V294.13c0-8.81-5.75-16-12.86-16s-12.86,7.14-12.86,16v50.56a85.31,85.31,0,0,1-15.2,9.29V293.57c0-22-14.41-39.91-32.18-39.91S233,271.53,233,293.57V354a85.58,85.58,0,0,1-15.19-9.29V294.13c0-8.81-5.77-16-12.87-16s-12.85,7.14-12.85,16V354h-9.94V297.06c0-12.73,9.6-9.38,9.6-27.11,0-14.95-22.07-8.18-22.07-36.19,0-106.7,95.5-84.87,95.5-127.6,0,42.73,95.51,20.9,95.51,127.6C360.74,261.77,338.62,255,338.62,270Z"/><path class="cls-3" d="M303.55,195.72A37.5,37.5,0,1,1,255,156.78a31.58,31.58,0,1,0,48.58,38.94Z"/><polygon class="cls-3" points="284.45 187.01 275.96 185.4 269.82 191.48 268.73 182.9 261.05 178.94 268.87 175.25 270.26 166.72 276.18 173.02 284.73 171.71 280.57 179.29 284.45 187.01"/></g><path class="cls-4" d="M259.36,454.24a34.43,34.43,0,0,0-4.34,1.43S222.84,441.3,210.45,438s-28.27-5.58-44.31-7.28c-22.16-2.32-49.95,1.66-58.2,3S56.5,444.33,50.86,445.32,25.33,450.49,12.2,448C6.43,446.87.07,443.06.07,443.06l66.07-94.85,6.12-.44,3-6.3,8.25-.68-71,96.41a215.91,215.91,0,0,0,30.79,2.47c15.77,0,32.29-5.63,54.81-12.6s37.81-9.19,66.34-7.53,52.68,8.64,62.83,14.27C235.84,438.54,258.64,453.76,259.36,454.24Z"/><path class="cls-5" d="M267.48,453.21a30.45,30.45,0,0,0-8.11,1h0c-.72-.48-23.52-15.7-32-20.45-10.15-5.63-34.3-12.61-62.83-14.27s-43.81.56-66.34,7.53-39,12.6-54.81,12.6a215.91,215.91,0,0,1-30.79-2.47l71-96.41,3-6.3,7.15-.33L28.75,427s-1.51,2.66,13.89,2.48,22.52-7.79,48.81-14.09,53.7-8.54,81.09-5.31,56,11.94,69.1,18.58C253.54,434.74,265.4,450.4,267.48,453.21Z"/><path class="cls-6" d="M267.74,453.22h-.3c-2.08-2.83-13.94-18.47-25.87-24.5-13.15-6.64-41.68-15.36-69.1-18.58a231.47,231.47,0,0,0-81.09,5.31C65.1,421.76,58,429.4,42.61,429.53s-13.87-2.48-13.87-2.48l65-92.91,3.37-6s9.39,1,18,1.64,21.77-1,29.65-2,21.38-7.38,42-6.38,36.8,3.77,52.57,12.72a197.37,197.37,0,0,1,25.57,17s3.08,2.35,3.08,2.68Z"/><path class="cls-7" d="M276.12,454.24a34.43,34.43,0,0,1,4.34,1.43S312.64,441.3,325,438s28.27-5.59,44.31-7.28c22.16-2.32,50,1.66,58.2,3s51.44,10.63,57.08,11.62,25.53,5.17,38.66,2.65c5.77-1.1,12.13-4.91,12.13-4.91l-66.07-94.87-6.12-.44-3-6.3-8.25-.68,71,96.41a215.91,215.91,0,0,1-30.79,2.47c-15.77,0-32.29-5.63-54.81-12.6s-37.81-9.19-66.34-7.53-52.68,8.64-62.83,14.27C299.64,438.54,276.84,453.76,276.12,454.24Z"/><path class="cls-8" d="M268,453.21a30.35,30.35,0,0,1,8.11,1h0c.72-.48,23.52-15.7,32-20.45,10.15-5.63,34.3-12.61,62.83-14.27s43.81.56,66.34,7.53,39,12.6,54.81,12.6a215.91,215.91,0,0,0,30.79-2.47l-71-96.41-3-6.3-7.15-.33,65,92.91s1.51,2.66-13.89,2.48-22.52-7.79-48.81-14.09-53.7-8.54-81.09-5.31-56,11.94-69.1,18.58C281.94,434.74,270.08,450.4,268,453.21Z"/><path class="cls-9" d="M267.74,453.22h.3c2.08-2.83,13.94-18.47,25.87-24.5,13.15-6.64,41.68-15.36,69.1-18.58a231.47,231.47,0,0,1,81.09,5.31c26.28,6.31,33.43,13.93,48.81,14.09s13.83-2.49,13.83-2.49l-65-92.91-3.37-6s-9.39,1-18,1.64-21.77-1-29.65-2-21.38-7.38-42-6.38-36.8,3.77-52.57,12.72a183.89,183.89,0,0,0-26.27,18,19.14,19.14,0,0,0-1.86,1.74Z"/><g id="_Radiale_Wiederholung_2" data-name=" Radiale Wiederholung 2" class="cls-10"><path class="cls-11" d="M470,234.76l-52.57-55.24,1.9-76.22a12.06,12.06,0,0,0-11.75-12.36h0l-76.22-1.89L278.8,33.81a12.08,12.08,0,0,0-17.06-.41L206.51,86l-76.22-1.9a12.06,12.06,0,0,0-12.36,11.75L116,172.05,60.8,224.6a12.07,12.07,0,0,0-.42,17.05l52.56,55.24-1.89,76.22a12.05,12.05,0,0,0,11.73,12.36h0L199,387.4l52.56,55.24a12.07,12.07,0,0,0,17,.42l55.24-52.56,76.27,1.9a12.06,12.06,0,0,0,12.36-11.75l1.89-76.25,55.24-52.56a12.07,12.07,0,0,0,.44-17.06ZM453.2,250,407,294l-5.1,4.86-.18,7-1.58,63.78a10.09,10.09,0,0,1-10.34,9.83L326,377.9l-7-.17h0l-5.1,4.85-46.22,44a10.07,10.07,0,0,1-14.24-.33l0,0-44-46.21-4.85-5.1-7-.18-63.84-1.6a10.09,10.09,0,0,1-9.83-10.34L125.49,299l.17-7h0l-4.85-5.1-44-46.21a10.09,10.09,0,0,1,.35-14.27h0l46.21-44,5.1-4.86.18-7,1.58-63.78A10.09,10.09,0,0,1,140.57,97l63.77,1.58,3,.07,4,.1h0l5.1-4.85,46.21-44a10.07,10.07,0,0,1,14.24.33l0,0,44,46.21L323,98.61l2.8,2.93,7,.18,63.78,1.58a10.09,10.09,0,0,1,9.83,10.34L404.9,177.4l-.17,7h0l4.85,5.1,44,46.21a10.09,10.09,0,0,1-.34,14.27Z"/></g></g></g></svg>